<?xml version="1.0" encoding="utf-8"?>
<!-- Generator: Adobe Illustrator 16.0.0, SVG Export Plug-In . SVG Version: 6.00 Build 0)  -->
<!DOCTYPE svg PUBLIC "-//W3C//DTD SVG 1.1//EN" "http://www.w3.org/Graphics/SVG/1.1/DTD/svg11.dtd">
<svg version="1.1" xmlns="http://www.w3.org/2000/svg" xmlns:xlink="http://www.w3.org/1999/xlink" x="0px" y="0px" width="300px"
	 height="300px" viewBox="0 0 300 300" enable-background="new 0 0 300 300" xml:space="preserve">
<g id="Layer_1">
	<path fill="#FFFFFF" d="M50.694,94.958c0,0,15.49-9.27,37.146-9.27c31.405,0,26.264-21.221,26.264-21.221V42.292
		c0,0,30.542-7.089,33.521-18.016c2.984-10.926,4.06-10.926,8.363-10.926s0,144.669,0,144.669s-50.822-11.863-40.393-37.118
		l-2.98-12.089l-49.911-2.77C62.705,106.045,50.694,103.97,50.694,94.958"/>
	<path fill="#FFFFFF" d="M260.883,94.958c0,0-15.491-9.27-37.147-9.27c-31.404,0-26.263-21.221-26.263-21.221V42.292
		c0,0-30.541-7.089-33.522-18.016c-2.983-10.926-4.059-10.926-8.362-10.926c-4.303,0,0,144.669,0,144.669
		s50.823-11.863,40.394-37.118l2.98-12.089l49.911-2.77C248.871,106.045,260.883,103.97,260.883,94.958"/>
	<g>
		<path fill="#FFFFFF" d="M155.079,167.027c0,0-32.94-8.319-35.918-13.861c-2.976-5.542-12.264-6.232-13.953-6.232
			c-1.688,0-6.901-1.38-12.859,10.047c-5.96,11.431-7.448,67.379-12.666,79.945h25.525l12.173-51.878v51.878h41.428"/>
		<path fill="#FFFFFF" d="M223.449,156.981c-5.959-11.427-11.17-10.047-12.86-10.047c-1.688,0-10.979,0.689-13.953,6.232
			c-2.978,5.542-35.917,13.861-35.917,13.861l-3.729,69.899h41.428v-51.878l12.173,51.878h25.526
			C230.896,224.36,229.407,168.412,223.449,156.981z M181.719,185.118l-4.14,4.092l-0.97-5.546l-5.461-2.398l5.369-2.572
			l0.765-5.574l4.291,3.958l5.933-1.048l-2.718,5.021l2.902,4.922L181.719,185.118z"/>
	</g>
	<text transform="matrix(1 0 0 1 50.6938 288.4326)" fill="#FFFFFF" font-family="'Raleway-Light'" font-size="57.3536">account</text>
</g>
<g id="Layer_2" display="none">
	<polyline display="inline" points="87.362,61.786 87.362,236.927 106.952,236.927 106.952,61.786 	"/>
	<polyline display="inline" points="202.211,61.786 202.211,236.927 221.801,236.927 221.801,61.786 	"/>
	<polyline display="inline" points="155.107,212.313 157.486,214.462 154.664,217.11 	"/>
	<polyline display="inline" points="157.824,212.313 155.441,214.462 158.266,217.11 	"/>
	<g display="inline">
		<path d="M159.896,30.541c-1.16,1.981-1.781,3.598-2.273,5.541c0.576,0.666,1.033,1.451,1.277,2.897h0.127
			c0.209-1.446,0.705-2.231,1.279-2.897C159.566,34.469,159.566,32.772,159.896,30.541z"/>
		<path d="M117.509,35.129v9.764c0,1.611,0.125,3.473,0.535,3.473c0.62,0,0.911-1.736,0.911-3.968v-9.474
			c0-1.658-0.08-2.813-0.661-2.813C117.799,32.112,117.509,32.938,117.509,35.129z"/>
		<path display="none" d="M164.736,26.196c-5.17,0-8.563,4.464-8.563,9.349l-0.04,7.902c-0.045,5.625,3.434,9.35,8.604,9.35
			c5.209,0,8.604-4.43,8.563-9.64v-7.612C173.259,30.375,169.906,26.196,164.736,26.196z M167.674,44.479
			c0,2.813-0.495,5.67-2.938,5.67c-2.481,0-2.938-2.647-2.938-5.67v-11c0-2.317,0.457-4.595,2.938-4.595
			c2.44,0,2.938,2.277,2.938,4.595V44.479z M172.553,39.059c-0.369-0.331-1.199-0.331-2.025,0c0.291,0.541,0.707,1.366,1.281,2.027
			c-0.246,1.532-0.574,3.809-1.902,6.787c0.291-2.979-0.162-5.42-0.783-6.787c0.621-0.661,1.074-1.486,1.279-2.027
			c-0.824-0.331-1.65-0.331-1.979,0v-5.58c0-4.014-1.577-5.341-3.687-5.341c-2.149,0-3.723,1.327-3.723,5.341v5.58
			c-0.33-0.331-1.156-0.331-1.986,0c0.209,0.541,0.705,1.366,1.279,2.027c-0.574,1.367-1.279,3.974-0.738,6.787
			c-1.076-2.938-1.656-5.381-1.945-6.787c0.576-0.661,0.992-1.486,1.277-2.027c-0.785-0.331-1.648-0.331-2.024,0v-3.513
			c0-4.218,2.813-8.648,7.86-8.648c5.008,0,7.816,4.43,7.816,8.648V39.059L172.553,39.059z"/>
		<path d="M111.883,30.541c-1.162,1.981-1.782,3.598-2.277,5.541c0.581,0.666,1.036,1.451,1.281,2.897h0.126
			c0.21-1.446,0.706-2.231,1.281-2.897C111.554,34.469,111.554,32.772,111.883,30.541z"/>
		<path d="M169.121,36.082c0.621,0.666,1.074,1.451,1.281,2.897h0.125c0.25-1.446,0.705-2.231,1.278-2.897
			c-0.534-1.902-1.073-3.639-2.271-5.541C169.865,32.357,169.865,34.469,169.121,36.082z"/>
		<path display="none" d="M142.162,43.857h0.66c0.826,0,1.492,0.621,1.492,2.192c0,3.434-1.947,4.099-3.724,4.099
			c-2.648,0-3.769-3.353-3.769-5.67v-11c0-2.317,0.501-4.595,2.983-4.595c3.222,0,4.509,5.666,4.549,9.764h4.258V26.361h-2.813
			c0,0.535-0.165,1.321-0.661,1.321c-0.62,0-1.326-0.41-1.987-0.7c-1.036-0.496-2.152-0.786-3.348-0.786
			c-5.42,0-8.563,4.674-8.563,9.349v6.907c0,5.049,2.481,10.345,8.682,10.345c1.327,0,2.608-0.126,3.268-0.416
			c0.667-0.291,1.241-0.581,1.697-0.581c0.455,0,0.747,0.376,0.911,0.746h2.192V46.01c0-1.202,0.25-2.152,1.242-2.152h1.405v-3.143
			h-8.479v3.142H142.162z M136.081,39.059c-0.62-0.331-1.286-0.331-1.986,0c0.204,0.581,0.7,1.406,1.241,2.027
			c-0.371,1.696-0.62,3.974-0.746,6.787c-0.786-2.648-1.405-5.005-1.902-6.787c0.582-0.621,1.036-1.446,1.283-2.027
			c-0.786-0.331-1.447-0.331-2.028,0v-2.977c0-4.88,3.063-9.185,7.863-9.185c1.241,0,2.271,0.375,3.057,0.746
			c0.832,0.455,1.571,0.785,2.482,0.785c0.62,0,1.202-0.699,1.202-1.32h1.32v10.834h-2.766c-0.291-5.169-1.908-9.804-5.295-9.804
			c-3.149,0-3.724,2.694-3.724,5.341L136.081,39.059L136.081,39.059z"/>
		<path d="M134.964,30.541c-1.201,1.902-1.742,3.968-2.277,5.585c0.582,0.621,1.036,1.406,1.283,2.892h0.125
			c0.204-1.486,0.7-2.271,1.241-2.892C134.629,34.469,134.629,32.772,134.964,30.541z"/>
		<path d="M165.523,35.129v9.764c0,1.611,0.125,3.473,0.533,3.473c0.622,0,0.911-1.736,0.911-3.968v-9.474
			c0-1.658-0.077-2.813-0.659-2.813C165.814,32.112,165.523,32.938,165.523,35.129z"/>
		<path d="M144.56,40.014l-0.912-1.077c-0.291-5.75-1.076-6.826-1.981-6.826c-1.036,0-1.076,1.155-1.076,3.017v11.541
			c0,1.076,0.575,2.073,1.571,2.073c1.03,0,1.446-1.122,1.446-2.693c0-1.03-0.786-1.486-1.491-1.486h-0.701v-4.549H144.56z"/>
		<path d="M121.108,36.082c0.621,0.666,1.076,1.451,1.281,2.897h0.125c0.251-1.446,0.706-2.231,1.282-2.897
			c-0.536-1.902-1.077-3.639-2.272-5.541C121.854,32.357,121.854,34.469,121.108,36.082z"/>
		<path display="none" d="M100.633,46.339c0,1.987-1.03,2.938-3.928,2.938c-3.018,0-3.599-1.321-3.599-3.684V32.357
			c0-1.942,0.496-3.144,1.326-3.308l1.321-0.205v-2.357h-9.969v2.357l1.326,0.205c0.826,0.165,1.321,1.366,1.321,3.308V46.67
			c0,1.902-0.331,3.104-1.321,3.313l-1.326,0.206v2.356h17.456v-8.477h-2.608L100.633,46.339L100.633,46.339z M92.36,39.059
			c-0.409-0.331-0.99-0.331-1.531,0c0.25,0.541,0.707,1.406,1.327,2.027c-0.621,1.367-1.077,3.268-1.366,6.787
			c-0.291-3.519-0.747-5.42-1.366-6.787c0.62-0.621,1.076-1.486,1.287-2.027c-0.582-0.331-1.116-0.331-1.532,0v-6.701
			c0-3.144-0.871-3.929-1.617-4.093l-1.07-0.166v-0.91h8.563v0.91l-1.076,0.166c-0.747,0.164-1.618,0.95-1.618,4.093L92.36,39.059
			L92.36,39.059z"/>
		<path d="M211.145,39.019c0.25-1.447,0.7-2.271,1.242-2.892c-0.542-0.997-0.992-2.482-1.328-5.585
			c-0.283,3.103-0.738,4.589-1.32,5.585c0.582,0.621,1.037,1.445,1.281,2.892H211.145z"/>
		<path d="M190.466,48.452c0.66,0,1.28-1.657,1.28-4.925v-10.59l-1.485,0.04c-1.123,0.21-1.53,1.241-1.53,3.228v7.487
			C188.73,48.036,189.477,48.452,190.466,48.452z"/>
		<path d="M89.423,36.126c0.62,0.621,1.076,1.445,1.287,2.892h0.119c0.25-1.447,0.707-2.271,1.327-2.892
			c-0.621-0.997-1.077-2.482-1.366-5.585C90.5,33.644,90.044,35.129,89.423,36.126z"/>
		<path display="none" d="M189.805,28.843l1.281,0.205c1.156,0.165,1.406,1.736,1.406,3.308v11.255c0,5.21-1.531,6.536-3.687,6.536
			c-3.347,0-3.842-2.482-3.842-8.978v-8.813c0-1.942,0.495-3.144,1.321-3.308l1.324-0.205v-2.357h-9.969v2.357l1.32,0.205
			c0.824,0.165,1.327,1.366,1.327,3.308v9.803c0,7.243,1.69,10.637,8.228,10.637c4.264,0,6.582-2.113,6.582-9.891V32.357
			c0-1.572,0.242-3.144,1.359-3.308l1.326-0.205v-2.357h-7.982v2.356H189.805z M184.22,39.059c-0.165-0.331-0.831-0.331-1.53,0
			c0.25,0.541,0.699,1.366,1.319,2.027c-0.62,1.367-1.069,3.268-0.825,6.747c-0.949-3.479-1.486-5.38-1.9-6.747
			c0.621-0.661,1.074-1.486,1.281-2.027c-0.66-0.331-1.322-0.331-1.533,0v-6.701c0-3.144-0.863-3.929-1.609-4.093l-1.075-0.166
			v-0.91h8.562v0.91l-1.072,0.166c-0.747,0.164-1.611,0.95-1.611,4.093v6.701H184.22z M190.546,27.188h6.535v0.91l-0.66,0.166
			c-1.774,0.37-2.067,1.821-2.067,4.093v6.701c-0.33-0.331-0.785-0.331-1.16,0v-6.701c0-2.272-0.371-3.678-2.105-4.093l-0.54-0.166
			L190.546,27.188L190.546,27.188z"/>
		<path display="none" d="M202.165,36.865h2.444V34.55c0-2.438,0.617-5.125,2.396-5.125c1.576,0,1.742,2.437,1.742,4.008V46.67
			c0,1.902-0.337,3.104-1.366,3.313l-1.328,0.206v2.356h10.016v-2.356l-1.285-0.206c-1.077-0.21-1.405-1.411-1.405-3.313V33.432
			c0-1.571,0.164-4.008,1.733-4.008c1.783,0,2.404,2.688,2.404,5.125v2.315h2.441V26.486h-17.793L202.165,36.865L202.165,36.865z
			 M202.871,27.188h16.381v8.979h-1.037V34.72c0-2.608-0.533-6.001-3.104-6.001c-1.775,0-2.438,1.492-2.438,3.969v6.371
			c-0.376-0.331-0.95-0.331-1.529,0c0.25,0.541,0.698,1.406,1.278,2.027c-0.58,1.367-1.028,3.268-1.365,6.787
			c-0.284-3.519-0.739-5.42-1.321-6.787c0.582-0.621,1.037-1.486,1.281-2.027c-0.535-0.331-1.115-0.331-1.57,0v-6.371
			c0-2.477-0.662-3.969-2.441-3.969c-2.563,0-3.104,3.394-3.104,6.001v1.446h-1.031V27.188L202.871,27.188z"/>
		<path display="none" d="M116.724,26.196c-5.169,0-8.563,4.464-8.563,9.349l-0.04,7.902c-0.047,5.625,3.433,9.35,8.603,9.35
			c5.209,0,8.603-4.43,8.563-9.64v-7.612C125.248,30.375,121.894,26.196,116.724,26.196z M119.662,44.479
			c0,2.813-0.496,5.67-2.938,5.67c-2.483,0-2.938-2.647-2.938-5.67v-11c0-2.317,0.455-4.595,2.938-4.595
			c2.442,0,2.938,2.277,2.938,4.595V44.479z M124.541,39.059c-0.371-0.331-1.201-0.331-2.027,0c0.29,0.541,0.706,1.366,1.282,2.027
			c-0.247,1.532-0.576,3.809-1.902,6.787c0.29-2.979-0.165-5.42-0.786-6.787c0.621-0.661,1.076-1.486,1.281-2.027
			c-0.826-0.331-1.651-0.331-1.981,0v-5.58c0-4.014-1.577-5.341-3.684-5.341c-2.152,0-3.724,1.327-3.724,5.341v5.58
			c-0.33-0.331-1.156-0.331-1.987,0c0.21,0.541,0.706,1.366,1.281,2.027c-0.575,1.367-1.281,3.974-0.74,6.787
			c-1.077-2.938-1.657-5.381-1.948-6.787c0.581-0.661,0.996-1.486,1.281-2.027c-0.786-0.331-1.65-0.331-2.026,0v-3.513
			c0-4.218,2.817-8.648,7.863-8.648c5.005,0,7.817,4.43,7.817,8.648V39.059z"/>
		<path d="M181.281,36.082c0.621,0.666,1.076,1.451,1.281,2.897h0.125c0.25-1.446,0.699-2.231,1.319-2.897
			c-0.62-0.991-1.069-2.483-1.358-5.586C182.357,33.597,181.902,35.089,181.281,36.082z"/>
		<path d="M72.065,21.243v40.543h5.295h9.406h148.521V21.243H72.065z M107.005,56.765H87.688l-2.647-3.473v-3.809l1.617-0.245
			c0.786-0.165,1.075-1.327,1.075-2.773V32.357c0-1.902-0.58-2.482-1.366-2.562l-1.326-0.251V25.74h11.46l3.063,4.055v3.268
			l-1.286,0.204c-0.741,0.086-1.407,0.952-1.407,3.189v10.339c0,1.116,0.832,1.407,1.492,1.407c0.786,0,1.531-0.992,1.531-2.523
			v-2.317h4.009l3.102,4.179V56.765z M129.049,45.138c0,7.942-4.305,11.877-10.049,11.877c-5.915,0-11.585-4.384-11.585-13.448
			v-7.943c0-6.2,4.469-10.134,9.309-10.134c7.902,0,12.326,7.031,12.326,12.042L129.049,45.138L129.049,45.138z M154.447,48.162
			h-1.451c-0.7,0-1.241,0.41-1.241,1.367v7.236h-2.438c-0.328-0.456-0.744-0.866-1.285-0.866c-0.496,0-1.07,0.165-1.861,0.495
			c-1.031,0.41-2.357,0.621-3.473,0.621c-6.537,0-12.201-6.167-12.201-14.564v-6.906c0-5.835,4.133-10.054,9.058-10.054
			c1.532,0,2.608,0.25,3.599,0.667c0.661,0.329,1.328,0.739,1.657,0.739c0.245,0,0.33-0.62,0.33-1.241h3.763l3.475,3.934v11.705
			l2.072,2.272v4.595H154.447z M177.064,45.138c0,7.942-4.305,11.877-10.052,11.877c-5.915,0-11.585-4.384-11.585-13.448v-7.943
			c0-6.2,4.469-10.134,9.309-10.134c7.904,0,12.328,7.031,12.328,12.042V45.138z M223.762,41.085h-3.977l-2.603-3.473v12.491
			l2.647,3.518v3.144h-11.831l-2.646-3.473v-3.809l1.569-0.245c0.827-0.165,1.076-1.327,1.076-2.773v-5.38h-2.731l-3.845-3.473
			v-4.527l-1.153,0.182c-0.746,0.086-1.408,0.952-1.408,3.189v11.785c0,6.167-3.81,8.814-8.521,8.814
			c-5.711,0-10.755-4.179-10.755-14.895v-9.803c0-1.902-0.581-2.482-1.366-2.562l-1.32-0.251V25.74h11.455l0.746,0.911V25.74h9.389
			l2.938,3.838V25.74h19.271l3.063,4.055L223.762,41.085L223.762,41.085z"/>
	</g>
	<text transform="matrix(1 0 0 1 73.2344 288.5771)" display="inline" font-family="'Raleway-Light'" font-size="57.1523">logout</text>
	<path display="inline" d="M150.832,84.213c0,0-5.483-2.835-7.055,10.487c-1.571,13.322-36.045,35.266-46.618,25.075
		c-10.573-10.192,1.172,97.17,9.792,87.765c19.586-13.316,47.319,12.543,47.319,12.543L150.832,84.213z M148.464,164.89
		c0,0-7.408,10.293-41.614,21.007c0,0,25.085-14.647,41.243-37.519L148.464,164.89z M148.052,126.977v14.165
		c0,0-6.997,13.755-41.203,24.471 M148.052,104.743v14.165c0,0-6.997,15.697-41.203,26.412"/>
	<path display="inline" d="M106.849,153.36"/>
	<path display="inline" d="M154.57,220.081c0,0,27.732-25.859,47.318-12.541c8.62,9.404,20.366-97.957,9.795-87.766
		c-10.574,10.191-45.048-11.752-46.619-25.075c-1.57-13.322-7.055-10.487-7.055-10.487L154.57,220.081z M160.75,148.378
		c16.158,22.871,41.244,37.52,41.244,37.52c-34.207-10.714-41.615-21.008-41.615-21.008L160.75,148.378z M201.994,165.612
		c-34.207-10.716-41.205-24.471-41.205-24.471v-14.165 M201.994,145.32c-34.207-10.715-41.205-26.412-41.205-26.412v-14.165"/>
</g>
</svg>
