<?xml version="1.0" encoding="utf-8"?>
<!-- Generator: Adobe Illustrator 16.0.0, SVG Export Plug-In . SVG Version: 6.00 Build 0)  -->
<!DOCTYPE svg PUBLIC "-//W3C//DTD SVG 1.1//EN" "http://www.w3.org/Graphics/SVG/1.1/DTD/svg11.dtd">
<svg version="1.1" id="Layer_1" xmlns="http://www.w3.org/2000/svg" xmlns:xlink="http://www.w3.org/1999/xlink" x="0px" y="0px"
	 width="40.75px" height="40.25px" viewBox="0 0 40.75 40.25" enable-background="new 0 0 40.75 40.25" xml:space="preserve">
<circle fill="#FFFFFF" cx="18.75" cy="28.25" r="12"/>
<image display="none" overflow="visible" enable-background="new    " width="32" height="32" xlink:href="4B7FA4AF.png"  transform="matrix(1.2578 0 0 1.2578 0.2485 4.882813e-004)">
</image>
<path fill="#FFFFFF" d="M26.25,14.968c0,0-0.296,1.903-0.984,3.765c-2.314-1.164-5.224-1.867-6.833-1.645
	c0,0,0.542-3.134,0.863-4.062C19.469,12.522,26.25,14.968,26.25,14.968z"/>
<path fill="#FFFFFF" d="M21.5,15.845c0,0,1.25-6.625,5.063-7.875c4.207-1.379,5.75-0.515,9.188,2.625l-1.524,0.492
	c0,0-1.506-3.3-7.101-2.054c-3.616,0.805-4.325,6.813-4.325,6.813"/>
</svg>
