<?xml version="1.0" encoding="utf-8"?>
<!-- Generator: Adobe Illustrator 16.0.0, SVG Export Plug-In . SVG Version: 6.00 Build 0)  -->
<!DOCTYPE svg PUBLIC "-//W3C//DTD SVG 1.1//EN" "http://www.w3.org/Graphics/SVG/1.1/DTD/svg11.dtd">
<svg version="1.1" id="Layer_1" xmlns="http://www.w3.org/2000/svg" xmlns:xlink="http://www.w3.org/1999/xlink" x="0px" y="0px"
	 width="40.75px" height="40.25px" viewBox="0 0 40.75 40.25" enable-background="new 0 0 40.75 40.25" xml:space="preserve">
<path fill="#FFFFFF" d="M32.525,24.431c0,0-1.133-0.895-0.563-1.376c1.652-1.399-0.891-2.289,2.926-2.416
	c2.162-0.383,1.472-1.018,1.472-1.399c0-0.382-1.346,1.144-1.346,0c0-1.146-2.289,0.126-2.543-1.273c-0.256-1.399-1.654,0-1.654,0
	l-5.216-2.544l-2.671-0.509L6.52,7.407H4.105L3.213,9.443l18.953,8.777l-0.125,2.543c0,0,1.524,0.255,0.507,1.272
	s-2.162,4.452,0.126,5.979c2.291,1.525,4.835,1.016,5.345,0.253c0.509-0.764,1.78,0.636,2.288,1.145
	c0.509,0.511-1.272,6.613-2.035,6.487c0.329,0.836,0.382,0.876,1.654,2.154c1.272,1.281,5.471,2.172,5.471,2.172
	s0.962,0.765,0.962-6.487c-0.039-2.304,0.055-4.453-0.962-6.234C34.38,25.726,32.525,24.431,32.525,24.431z M25.452,27.616
	c-2.035,0.255-3.401-2.809-2.394-3.787c0.702-0.684,1.798-0.646,1.798-0.646s0.374,0.479,0.38,0.978
	c0.003,0.267-0.285,0.575-0.38,0.732c-0.738,1.229-0.727,0.395-0.377,1.266l2.141-0.941C26.619,25.217,27.487,27.36,25.452,27.616z"
	/>
<path fill="#FFFFFF" d="M3.906,7.895l0.882,0.312l1.8-0.747l-1.842-0.85c0,0,0.118,0.013-0.123,0.001
	C4.383,6.599,3.906,7.895,3.906,7.895z"/>
</svg>
