<?xml version="1.0" encoding="utf-8"?>
<!-- Generator: Adobe Illustrator 16.0.0, SVG Export Plug-In . SVG Version: 6.00 Build 0)  -->
<!DOCTYPE svg PUBLIC "-//W3C//DTD SVG 1.1//EN" "http://www.w3.org/Graphics/SVG/1.1/DTD/svg11.dtd">
<svg version="1.1" id="Layer_1" xmlns="http://www.w3.org/2000/svg" xmlns:xlink="http://www.w3.org/1999/xlink" x="0px" y="0px"
	 width="141.147px" height="331.137px" viewBox="0 0 141.147 331.137" enable-background="new 0 0 141.147 331.137"
	 xml:space="preserve">
<g>
	<path fill="#E06626" d="M57.143,331.137V305.74l-6.837-5.373h6.837v-23.932c0,0-19.536,8.791-29.792-2.93
		c-10.257-11.723-8.791-27.839-8.791-27.839h-6.35l4.396-4.885l-4.396-50.305l-7.814-2.932h6.349l-1.953-28.327L0,150.916
		c0,0,9.279,4.885,9.279,2.443c0-2.443-3.418-19.536,5.861-23.933c9.279-4.396,18.559-0.487,20.513,3.907
		c1.953,4.396,0,113.31,3.419,116.728c3.419,3.419,0.977,14.164,18.07,3.419c0,0,4.309-42.938-2.441-45.909
		c-6.751-2.973-4.396-4.396-4.396-4.396s7.814,2.442,6.837,0.489c-0.977-1.954-3.907-98.168-3.907-98.168l-8.303-4.885
		c0,0,6.838,1.465,6.838,0s-0.488-56.166-0.488-56.166l-10.745-4.885h9.279c0,0-2.441-30.769,3.419-32.723
		C54.09,2.989,60.148-1.375,68.864,0c8.717,1.376,15.629,0.978,19.048,12.211c3.42,11.232,0,44.444,0,44.444
		s4.396,0.488,5.861-1.954c1.465-2.441-0.488,6.35-6.35,6.35c0.978,8.304-1.465,100.122-1.465,100.122s6.305,4.338,8.28,2.657
		c1.976-1.68-8.28,3.691-8.28,3.691v31.747c0,0,10.256,3.907,14.163-7.814s5.861-49.817,5.861-49.817l-7.326-5.86l7.326,0.978
		v-33.701l-7.326-0.977l7.326-3.906c0,0-2.931-19.049,14.652-22.468c17.582,2.932,17.582,20.514,15.628,24.909
		c-1.953,4.396-1.953,26.373-1.953,26.373l6.837-1.465c0,0-1.953,4.396-6.837,5.861c0,0-7.815,59.585-16.605,76.679
		c0,0-2.395,3.18-10.745,8.303s-22.813,2.46-21.978-4.396l-1.466,36.143l7.325-1.466c0,0-2.93,4.884-5.859,4.884
		c-2.931,0-0.489,13.187-0.489,13.187h4.396l-3.906,4.885l-1.954,61.538H57.143z"/>
	<path fill="#E06626" d="M84.688,219.21c0,0,10.506,0.569,14.651-0.343c4.146-0.911-17.617-10.482-17.617-10.482L84.688,219.21z"/>
</g>
</svg>
