<?xml version="1.0" encoding="utf-8"?>
<!-- Generator: Adobe Illustrator 16.0.0, SVG Export Plug-In . SVG Version: 6.00 Build 0)  -->
<!DOCTYPE svg PUBLIC "-//W3C//DTD SVG 1.1//EN" "http://www.w3.org/Graphics/SVG/1.1/DTD/svg11.dtd">
<svg version="1.1" id="Layer_4" xmlns="http://www.w3.org/2000/svg" xmlns:xlink="http://www.w3.org/1999/xlink" x="0px" y="0px"
	 width="357.826px" height="847.683px" viewBox="0 0 357.826 847.683" enable-background="new 0 0 357.826 847.683"
	 xml:space="preserve">
<path d="M144.863,847.683v-64.385l-17.333-13.617h17.333v-60.672c0,0-49.525,22.287-75.527-7.428
	c-26.002-29.715-22.287-70.574-22.287-70.574H30.954l11.144-12.383L30.954,491.095l-19.811-7.43H27.24l-4.953-71.813L0,390.805
	c0,0,23.524,12.381,23.524,6.191c0-6.191-8.667-49.525,14.858-60.671c23.525-11.143,47.05-1.236,52.003,9.905
	c4.953,11.145,0,287.251,8.667,295.917c8.667,8.668,2.477,35.908,45.811,8.668c0,0,10.924-108.852-6.19-116.385
	c-17.114-7.535-11.144-11.145-11.144-11.145s19.811,6.189,17.333,1.238c-2.476-4.953-9.904-248.868-9.904-248.868l-21.049-12.381
	c0,0,17.334,3.713,17.334,0c0-3.715-1.238-142.388-1.238-142.388l-27.24-12.381h23.524c0,0-6.19-78.004,8.668-82.958
	c2.167-9.756,17.523-20.82,39.621-17.334c22.098,3.488,39.62,2.478,48.287,30.956c8.668,28.477,0,112.672,0,112.672
	s11.144,1.237,14.858-4.953c3.715-6.191-1.237,16.095-16.096,16.095c2.477,21.052-3.714,253.823-3.714,253.823
	s15.983,10.997,20.992,6.734c5.01-4.257-20.992,9.36-20.992,9.36v80.48c0,0,26.001,9.906,35.907-19.811
	c9.905-29.716,14.856-126.291,14.856-126.291l-18.572-14.858l18.572,2.477v-85.434l-18.572-2.477l18.572-9.904
	c0,0-7.428-48.288,37.146-56.956c44.572,7.431,44.572,52.003,39.619,63.147c-4.951,11.144-4.951,66.859-4.951,66.859l17.334-3.716
	c0,0-4.953,11.147-17.334,14.86c0,0-19.811,151.054-42.098,194.39c0,0-6.068,8.061-27.24,21.047
	c-21.169,12.988-57.83,6.238-55.716-11.143l-3.714,91.625l18.572-3.717c0,0-7.429,12.381-14.858,12.381s-1.239,33.432-1.239,33.432
	h11.144l-9.905,12.383l-4.952,156.006H144.863z"/>
</svg>
