<?xml version="1.0" encoding="utf-8"?>
<!-- Generator: Adobe Illustrator 16.0.0, SVG Export Plug-In . SVG Version: 6.00 Build 0)  -->
<!DOCTYPE svg PUBLIC "-//W3C//DTD SVG 1.1//EN" "http://www.w3.org/Graphics/SVG/1.1/DTD/svg11.dtd">
<svg version="1.1" id="Layer_1" xmlns="http://www.w3.org/2000/svg" xmlns:xlink="http://www.w3.org/1999/xlink" x="0px" y="0px"
	 width="40.75px" height="40.25px" viewBox="0 0 40.75 40.25" enable-background="new 0 0 40.75 40.25" xml:space="preserve">
<rect id="_x3C_Slice_x3E_" x="4.249" y="-0.066" fill="none" width="33.731" height="40.007"/>
<path d="M28.994,12.283l-0.063-2.441l2.682-3.063l-3-4.214h-2.745l-3.32-1.914h-1.34h-1.341l-3.319,1.914h-2.745l-3,4.214
	l2.682,3.063l-0.064,2.441c-1.149,0.525-1.149,1.645-1.149,1.645c0,1.787,1.852,2.169,1.852,2.169v0.767
	c0.447,4.978,7.086,6.638,7.086,6.638s6.638-1.66,7.085-6.638v-0.767c0,0,1.852-0.382,1.852-2.169
	C30.145,13.928,30.145,12.808,28.994,12.283z"/>
<path fill="#FFFFFF" d="M19.152,24.598c0,0,1.912,1.439,4.923-0.204s0,14.239,0,14.239l-5.645-0.475L19.152,24.598z"/>
<g>
	<path d="M33.988,22.982c-1.152-2.376-2.161-2.09-2.487-2.09s-2.122,0.145-2.698,1.295c-0.543,1.088-6.875,2.733-7.596,2.92
		l0.255-0.066l1.627,10.084l-1.823,2.076v2.396h7.883V28.814l2.354,10.783h4.934C35.43,36.986,35.141,25.355,33.988,22.982z"/>
	<path d="M21.139,37.348l-1.953-2.223l1.626-10.119l0.327,0.102h0.057c-0.72-0.186-7.052-1.832-7.595-2.92
		c-0.576-1.149-2.372-1.295-2.698-1.295c-0.326,0-1.334-0.287-2.487,2.09c-1.152,2.373-1.439,14.004-2.448,16.615h4.935
		l2.354-10.783v10.783h7.883h0.127v-2.396L21.139,37.348z"/>
</g>
<text transform="matrix(1 0 0 1 24.1816 30.2393)" fill="#F5F5F5" font-family="'MyriadPro-Regular'" font-size="5.4213">1</text>
</svg>
