<?xml version="1.0" encoding="utf-8"?>
<!-- Generator: Adobe Illustrator 16.0.0, SVG Export Plug-In . SVG Version: 6.00 Build 0)  -->
<!DOCTYPE svg PUBLIC "-//W3C//DTD SVG 1.1//EN" "http://www.w3.org/Graphics/SVG/1.1/DTD/svg11.dtd">
<svg version="1.1" id="Layer_1" xmlns="http://www.w3.org/2000/svg" xmlns:xlink="http://www.w3.org/1999/xlink" x="0px" y="0px"
	 width="300px" height="300px" viewBox="0 0 300 300" enable-background="new 0 0 300 300" xml:space="preserve">
<g>
	<path fill="#FFFFFF" d="M12.448,20.863c0,0,10.633,54.909,23.84,54.909c13.205,0,6.254,17.375,33.363,11.12
		c27.108-6.253,27.803-7.646,33.363-11.12c5.561-3.475,4.866,5.56,15.987,0.695c11.121-4.866,13.985-15.292,28.191-15.292
		c14.207,0,0,0,0,0v215.472c0,0-24.715-6.944-21.241-17.375c3.476-10.43-6.259-60.467-21.548-84.797c0,0-1.368-7.646-15.289-7.646
		c0,0-14.355-11.122-6.136-18.074c8.219-6.953,8.916-20.854,6.83-30.583c0,0-33.364-0.694-43.79-0.694
		C35.592,117.476-1.925,82.668,12.448,20.863"/>
	<path fill="#FFFFFF" d="M288.246,20.863c0,0-10.631,54.909-23.836,54.909c-13.206,0-6.258,17.375-33.368,11.12
		c-27.106-6.253-27.801-7.646-33.358-11.12c-5.561-3.475-4.871,5.56-15.988,0.695c-11.118-4.865-13.981-15.292-28.188-15.292
		s0,0,0,0v215.472c0,0,24.717-6.944,21.241-17.375c-3.479-10.43,6.265-60.467,21.548-84.797c0,0,1.369-7.646,15.286-7.646
		c0,0,14.356-11.122,6.144-18.074c-8.224-6.955-8.922-20.853-6.834-30.583c0,0,33.361-0.692,43.791-0.692
		C265.102,117.479,302.618,82.668,288.246,20.863"/>
</g>
<path fill="#FFFFFF" d="M137.18,63.457c0,0,18.314-5.952,26.339,0c8.021,5.954-10.018,213.136-10.018,213.136s-1.486,1.627-6.313,0
	C142.366,274.969,130.337,56.704,137.18,63.457z"/>
<text transform="matrix(1 0 0 1 24.5 38.5)" fill="#FFFFFF" font-family="'MyriadPro-Regular'" font-size="48">saloonwars</text>
</svg>
