<?xml version="1.0" encoding="utf-8"?>
<!-- Generator: Adobe Illustrator 16.0.0, SVG Export Plug-In . SVG Version: 6.00 Build 0)  -->
<!DOCTYPE svg PUBLIC "-//W3C//DTD SVG 1.1//EN" "http://www.w3.org/Graphics/SVG/1.1/DTD/svg11.dtd">
<svg version="1.1" id="Layer_1" xmlns="http://www.w3.org/2000/svg" xmlns:xlink="http://www.w3.org/1999/xlink" x="0px" y="0px"
	 width="1000px" height="300px" viewBox="0 0 1000 300" enable-background="new 0 0 1000 300" xml:space="preserve">
<path d="M-0.001,149.66c0,0,60-1.96,67.843-9.804s96.078-5.882,107.843,0s223.529,27.45,233.333,19.607s62.745-29.953,74.51-24.78
	s80.393,6.804,94.118,12.851s168.627,17.482,194.117,0S912.94,161.16,912.94,161.16l87.059-13.626v153.93h-1000V149.66z"/>
<path d="M68.046,144.407c0,0-1.865-31.471-46.39-53.151c-8.393-3.963,45.923,6.295,50.586,18.417s-1.165-25.643-9.091-35.667
	s17.717,12.121,19.815,22.146s2.564-23.078,0-23.777s4.662,1.864,9.791,17.25s1.399-36.366,1.399-36.366
	s10.723,13.521,14.453,48.722c0.169,1.488,4.973-12.827,22.146-17.251s19.349-22.146,19.582-22.612s4.196,21.681-18.649,38.465
	c0,0-2.798,8.392,0.699,11.889s35.667-9.091,46.856-4.429c0,0-23.778,5.361-25.41,11.889s31.004-7.228,42.894-1.865
	c0,0-31.004,10.491-41.961,25.41L68.046,144.407z"/>
<path d="M786.624,150.856l-18.408-4.671h17.311c0,0-35.996-17.586-44.238-18.41c-8.244-0.824,40.115,4.122,43.688,8.793
	s-18.959-18.686-26.652-21.433s28.852,10.167,33.797,16.212s-28.85-34.895-41.49-38.742c2.473-0.825,44.238,24.179,44.238,29.125
	s-7.145-21.707-18.41-32.973s28.576,23.629,29.676,31.049s-14.014-54.953-11.266-57.701s12.914,48.634,19.234,50.558
	c1.648,1.374-2.473-29.676,1.373-30.774c0,0,0.275,35.721,3.572,38.193s13.738-48.359,13.738-48.359s-6.594,34.347-2.748,41.49
	c1.1,2.473,19.51-54.404,19.51-54.404s-13.189,51.106-11.541,56.327c0,0,12.365-19.783,15.938-22.256s-13.738,25.004-12.914,28.851
	s33.797-29.95,33.797-29.95s-32.697,40.666-32.424,45.887c0.275,5.221,42.039-20.882,42.039-20.882s-35.719,25.003-35.994,29.949
	L786.624,150.856z"/>
<path d="M571.917,150.856l13.535-3.435h-12.727c0,0,26.465-12.93,32.525-13.535c6.061-0.606-29.494,3.03-32.121,6.465
	c-2.627,3.434,13.939-13.738,19.596-15.759c5.656-2.02-21.213,7.476-24.848,11.92c-3.637,4.444,21.211-25.656,30.504-28.484
	c-1.818-0.607-32.523,17.777-32.523,21.414s5.25-15.961,13.533-24.243c8.283-8.283-21.008,17.373-21.816,22.828
	s10.303-40.403,8.283-42.425c-2.021-2.02-9.496,35.758-14.143,37.173c-1.211,1.01,1.818-21.819-1.01-22.627
	c0,0-0.203,26.264-2.627,28.081c-2.424,1.818-10.102-35.556-10.102-35.556s4.85,25.253,2.021,30.506
	c-0.809,1.817-14.344-40.001-14.344-40.001s9.697,37.576,8.484,41.414c0,0-9.09-14.545-11.717-16.363
	c-2.627-1.817,10.102,18.384,9.494,21.213c-0.605,2.828-24.848-22.021-24.848-22.021s24.039,29.899,23.838,33.738
	c-0.201,3.838-30.909-15.354-30.909-15.354s26.262,18.384,26.463,22.02L571.917,150.856z"/>
</svg>
