<?xml version="1.0" encoding="utf-8"?>
<!-- Generator: Adobe Illustrator 16.0.0, SVG Export Plug-In . SVG Version: 6.00 Build 0)  -->
<!DOCTYPE svg PUBLIC "-//W3C//DTD SVG 1.1//EN" "http://www.w3.org/Graphics/SVG/1.1/DTD/svg11.dtd">
<svg version="1.1" id="Layer_1" xmlns="http://www.w3.org/2000/svg" xmlns:xlink="http://www.w3.org/1999/xlink" x="0px" y="0px"
	 width="40.75px" height="40.25px" viewBox="0 0 40.75 40.25" enable-background="new 0 0 40.75 40.25" xml:space="preserve">
<g>
	<path d="M19.521,23.933L19.521,23.933L19.521,23.933c-0.742-0.189-6.862-1.781-7.421-2.898c-0.592-1.186-2.439-1.333-2.776-1.333
		c-0.335,0-1.373-0.294-2.558,2.15c-1.186,2.443-1.482,14.408-2.52,17.094h5.077l2.422-11.092v11.092h8.109h0.131v-2.465
		l-0.131,0.148"/>
</g>
<path d="M30.301,9.812c-0.381-0.152-2.691-4.643-2.691-4.643c-0.258-0.989-5.223-4.501-7.549-4.501s-5.436,1-5.436,1
	c-2.131,1.001-2.291,3.044-2.291,3.044c-0.388,1.979,0.541,2.207,0.541,2.207c-0.837,0.533-1.081,1.413-1.081,1.413l-0.066,2.511
	c0,0-1.488,0.918-1.171,1.893c0,0-0.466,1.056,1.893,2.032c0,0-0.83,5.285,7.29,7.618c8.118-2.333,7.29-7.618,7.29-7.618
	c2.357-0.977,1.891-2.032,1.891-2.032c0.318-0.974-1.17-1.893-1.17-1.893C29.842,10.884,30.682,9.964,30.301,9.812z"/>
<g>
	<path fill="none" d="M24.277,26.343c-1.141,1.963-2.611,2.549-2.611,2.549v0.854c2.037-1.098,2.611-2.154,2.611-2.154
		s0.578,1.057,2.615,2.154v-0.854C26.893,28.892,25.42,28.306,24.277,26.343z"/>
	<path fill="none" d="M24.277,24.595c-0.906,2.004-2.611,3.135-2.611,3.135v0.918c1.855-1.047,2.611-2.635,2.611-2.635
		s0.758,1.588,2.615,2.635v-0.918C26.893,27.729,25.186,26.599,24.277,24.595z"/>
	<path d="M32.887,21.851c-1.188-2.444-2.225-2.15-2.559-2.15c-0.338,0-2.184,0.148-2.777,1.333
		c-0.559,1.117-6.678,2.709-7.419,2.898l-0.335,12.695l-0.131-0.148v2.465h0.131h8.109V27.853l2.422,11.092h5.076
		C34.367,36.259,34.07,24.294,32.887,21.851z M26.162,28.647c-1.469-0.793-1.885-1.553-1.885-1.553s-0.414,0.76-1.881,1.553v-0.615
		c0,0,1.061-0.424,1.881-1.838c0.824,1.414,1.885,1.838,1.885,1.838V28.647z M26.162,27.854c-1.338-0.752-1.885-1.898-1.885-1.898
		s-0.545,1.146-1.881,1.898v-0.66c0,0,1.229-0.814,1.881-2.26c0.654,1.445,1.885,2.26,1.885,2.26V27.854z"/>
</g>
<text transform="matrix(1 0 0 1 22.6719 32.4961)" fill="#FFFFFF" font-family="'MyriadPro-Regular'" font-size="5.5775">4</text>
</svg>
