<?xml version="1.0" encoding="utf-8"?>
<!-- Generator: Adobe Illustrator 16.0.0, SVG Export Plug-In . SVG Version: 6.00 Build 0)  -->
<!DOCTYPE svg PUBLIC "-//W3C//DTD SVG 1.1//EN" "http://www.w3.org/Graphics/SVG/1.1/DTD/svg11.dtd">
<svg version="1.1" id="Layer_1" xmlns="http://www.w3.org/2000/svg" xmlns:xlink="http://www.w3.org/1999/xlink" x="0px" y="0px"
	 width="40.75px" height="40.25px" viewBox="0 0 40.75 40.25" enable-background="new 0 0 40.75 40.25" xml:space="preserve">
<path d="M31.217,10.251c-0.376-0.15-2.66-4.587-2.66-4.587c-0.255-0.977-5.158-4.447-7.457-4.447c-2.299,0-5.371,0.989-5.371,0.989
	c-2.105,0.989-2.264,3.008-2.264,3.008c-0.383,1.955,0.534,2.18,0.534,2.18C13.172,7.92,12.931,8.79,12.931,8.79l-0.064,2.48
	c0,0-1.471,0.908-1.157,1.871c0,0-0.46,1.042,1.871,2.007c0,0-0.82,5.222,7.201,7.527c8.022-2.305,7.202-7.527,7.202-7.527
	c2.331-0.965,1.87-2.007,1.87-2.007c0.314-0.962-1.156-1.871-1.156-1.871C30.764,11.31,31.594,10.401,31.217,10.251z"/>
<g>
	<polygon points="20.382,24.201 20.382,24.201 20.382,24.202 	"/>
	<path d="M20.771,24.304c-0.075-0.02-0.21-0.055-0.389-0.102l0.33,0.102H20.771z"/>
	<path d="M23.584,29.179c0,0,0.345,0.824,1.356,0.741c1.014,0.083,1.358-0.741,1.358-0.741c-1.034-0.501-1.358-1.055-1.358-1.055
		S24.617,28.678,23.584,29.179z"/>
	<path d="M21.025,24.239l-0.243,0.064C20.835,24.29,20.92,24.269,21.025,24.239z"/>
	<path d="M33.772,22.145c-1.17-2.415-2.195-2.124-2.527-2.124s-2.156,0.146-2.741,1.317c-0.513,1.025-6.095,2.54-7.479,2.901
		l0.016-0.003l1.654,10.251l-1.854,2.109l-0.129,0.147l-1.984-2.257l1.654-10.286c-1.592-0.42-6.835-1.871-7.332-2.863
		c-0.585-1.171-2.41-1.317-2.743-1.317c-0.331,0-1.355-0.292-2.527,2.124c-1.171,2.414-1.464,14.234-2.489,16.889h5.016l2.393-10.96
		v10.96h8.012h0.129h8.012v-10.96l2.392,10.96h5.017C35.237,36.379,34.943,24.559,33.772,22.145z M26.827,29.345
		c-0.657,1.117-1.857,1.002-1.857,1.002s-1.2,0.115-1.857-1.002v-0.637c0,0,0.82-0.346,1.857-1.368
		c0.914,0.984,1.857,1.368,1.857,1.368V29.345z M26.827,28.426c-1.455-0.786-1.868-1.541-1.868-1.541s-0.411,0.755-1.869,1.541
		v-0.611c0,0,1.054-0.419,1.869-1.822c0.816,1.403,1.868,1.822,1.868,1.822V28.426z M26.827,27.64
		c-1.327-0.748-1.868-1.884-1.868-1.884s-0.542,1.136-1.869,1.884v-0.656c0,0,1.221-0.809,1.869-2.243
		c0.649,1.435,1.868,2.243,1.868,2.243V27.64z"/>
</g>
<text transform="matrix(1 0 0 1 23.584 35.1855)" fill="#FFFFFF" font-family="'MyriadPro-Regular'" font-size="5.5103">6</text>
</svg>
