<?xml version="1.0" encoding="utf-8"?>
<!-- Generator: Adobe Illustrator 16.0.0, SVG Export Plug-In . SVG Version: 6.00 Build 0)  -->
<!DOCTYPE svg PUBLIC "-//W3C//DTD SVG 1.1//EN" "http://www.w3.org/Graphics/SVG/1.1/DTD/svg11.dtd">
<svg version="1.1" id="Layer_1" xmlns="http://www.w3.org/2000/svg" xmlns:xlink="http://www.w3.org/1999/xlink" x="0px" y="0px"
	 width="40.75px" height="40.25px" viewBox="0 0 40.75 40.25" enable-background="new 0 0 40.75 40.25" xml:space="preserve">
<path d="M31.217,10.251c-0.376-0.15-2.66-4.587-2.66-4.587c-0.255-0.977-5.158-4.447-7.457-4.447s-5.371,0.989-5.371,0.989
	c-2.105,0.989-2.264,3.008-2.264,3.008c-0.383,1.955,0.534,2.18,0.534,2.18C13.172,7.92,12.931,8.79,12.931,8.79l-0.064,2.48
	c0,0-1.471,0.908-1.157,1.871c0,0-0.46,1.042,1.871,2.007c0,0-0.82,5.222,7.201,7.527c8.022-2.305,7.202-7.527,7.202-7.527
	c2.33-0.965,1.869-2.007,1.869-2.007c0.314-0.962-1.155-1.871-1.155-1.871C30.764,11.31,31.594,10.401,31.217,10.251z"/>
<path fill="#FFFFFF" d="M18.716,23.723c0,0,1.912,1.439,4.923-0.204s0,14.239,0,14.239l-5.645-0.475L18.716,23.723z"/>
<g>
	<polygon points="20.382,24.201 20.382,24.201 20.382,24.202 	"/>
	<path d="M20.771,24.305c-0.075-0.021-0.21-0.056-0.389-0.103l0.33,0.103H20.771z"/>
	<path d="M23.584,29.18c0,0,0.346,0.823,1.355,0.74c1.015,0.083,1.358-0.74,1.358-0.74c-1.034-0.502-1.358-1.056-1.358-1.056
		S24.617,28.678,23.584,29.18z"/>
	<path d="M21.025,24.239l-0.243,0.063C20.835,24.29,20.92,24.27,21.025,24.239z"/>
	<path d="M33.771,22.145c-1.17-2.415-2.194-2.124-2.526-2.124s-2.156,0.146-2.741,1.317c-0.513,1.025-6.095,2.54-7.479,2.901
		l0.016-0.003l1.654,10.25l-1.854,2.109l-0.129,0.147l-1.984-2.257L20.382,24.2c-1.592-0.42-6.835-1.871-7.332-2.863
		c-0.585-1.171-2.41-1.317-2.743-1.317c-0.331,0-1.355-0.292-2.527,2.125c-1.171,2.414-1.464,14.233-2.489,16.889h5.016l2.393-10.96
		v10.96h8.012h0.129h8.013v-10.96l2.392,10.96h5.017C35.236,36.379,34.943,24.559,33.771,22.145z M26.827,29.345
		c-0.657,1.117-1.856,1.003-1.856,1.003s-1.201,0.114-1.857-1.003v-0.637c0,0,0.82-0.347,1.857-1.368
		c0.913,0.984,1.856,1.368,1.856,1.368V29.345z M26.827,28.426c-1.455-0.785-1.868-1.541-1.868-1.541s-0.411,0.756-1.869,1.541
		v-0.611c0,0,1.055-0.418,1.869-1.821c0.816,1.403,1.868,1.821,1.868,1.821V28.426z M26.827,27.641
		c-1.327-0.748-1.868-1.885-1.868-1.885s-0.542,1.137-1.869,1.885v-0.656c0,0,1.221-0.81,1.869-2.243
		c0.648,1.435,1.868,2.243,1.868,2.243V27.641z"/>
</g>
<text transform="matrix(1 0 0 1 23.584 35.1855)" fill="#FFFFFF" font-family="'MyriadPro-Regular'" font-size="5.5103">9</text>
</svg>
