<?xml version="1.0" encoding="utf-8"?>
<!-- Generator: Adobe Illustrator 16.0.0, SVG Export Plug-In . SVG Version: 6.00 Build 0)  -->
<!DOCTYPE svg PUBLIC "-//W3C//DTD SVG 1.1//EN" "http://www.w3.org/Graphics/SVG/1.1/DTD/svg11.dtd">
<svg version="1.1" id="Layer_1" xmlns="http://www.w3.org/2000/svg" xmlns:xlink="http://www.w3.org/1999/xlink" x="0px" y="0px"
	 width="50.622px" height="50px" viewBox="0 0 50.622 50" enable-background="new 0 0 50.622 50" xml:space="preserve">
<polyline points="2.811,46.5 2.811,30.5 47.811,30.5 47.811,46.5 "/>
<rect x="2.811" y="27.5" width="45" height="3"/>
<polygon points="2.811,16.5 12.811,16.5 12.811,20.5 38.811,20.5 38.811,16.5 47.811,16.5 47.811,27.5 2.811,27.5 "/>
<path fill="none" stroke="#000000" stroke-miterlimit="10" d="M33.311,5.237v3.596V5.237z"/>
<path fill="none" stroke="#000000" stroke-miterlimit="10" d="M17.311,5.237v3.596V5.237z"/>
<path fill="none" stroke="#000000" stroke-miterlimit="10" d="M45.311,15.305v-5.034V15.305z"/>
<polygon points="43.051,12.967 45.811,10.271 45.811,13.147 "/>
<path fill="none" stroke="#000000" stroke-miterlimit="10" d="M41.311,16.024V10.99V16.024z"/>
<polygon points="38.049,13.687 40.811,10.99 40.811,13.867 "/>
<path fill="none" stroke="#000000" stroke-miterlimit="10" d="M10.311,16.743v-5.035V16.743z"/>
<polygon points="8.051,14.406 10.811,11.708 10.811,14.585 "/>
<rect x="15.311" y="41" fill="none" stroke="#FFFFFF" stroke-miterlimit="10" width="20" height="5"/>
<path fill="none" stroke="#FFFFFF" stroke-miterlimit="10" d="M21.311,40.474v5.753V40.474z"/>
<line fill="none" stroke="#FFFFFF" stroke-miterlimit="10" x1="30.311" y1="41.5" x2="30.311" y2="46.5"/>
<rect x="14.811" y="8.5" fill="none" stroke="#000000" stroke-width="2" stroke-miterlimit="10" width="22" height="10"/>
</svg>
