<?xml version="1.0" encoding="utf-8"?>
<!-- Generator: Adobe Illustrator 16.0.0, SVG Export Plug-In . SVG Version: 6.00 Build 0)  -->
<!DOCTYPE svg PUBLIC "-//W3C//DTD SVG 1.1//EN" "http://www.w3.org/Graphics/SVG/1.1/DTD/svg11.dtd">
<svg version="1.1" id="Layer_1" xmlns="http://www.w3.org/2000/svg" xmlns:xlink="http://www.w3.org/1999/xlink" x="0px" y="0px"
	 width="50.622px" height="50px" viewBox="0 0 50.622 50" enable-background="new 0 0 50.622 50" xml:space="preserve">
<polygon points="5.556,12.464 9.825,3.106 13.995,12.464 "/>
<path d="M14.115,13.635v5.253h-2.452v-5.253H7.898l-0.01,5.198v0.066H5.261l-0.015-5.264H1.77v6.917h1.488v28.28h13.221v-28.28h1.4
	v-6.917H14.115z M11.434,32.789H8.216v-5.517c0,0,0.46-2.101,1.576-2.101c1.117,0,1.642,1.905,1.642,1.905V32.789z"/>
<path d="M32.897,3.654"/>
<polygon points="36.683,12.464 40.952,3.106 45.121,12.464 "/>
<path d="M45.243,13.635v5.253h-2.452v-5.253h-3.767l-0.01,5.198v0.066h-2.627l-0.015-5.264h-3.476v6.917h1.487v28.28h13.222v-28.28
	h1.4v-6.917H45.243z M42.56,32.789h-3.218v-5.517c0,0,0.46-2.101,1.576-2.101s1.642,1.905,1.642,1.905V32.789z"/>
<path d="M29,23.069v3.416h-2.168v-3.416h-2.889v3.416h-2.298v-3.416h-2.89v25.763h2.561v-9.477c0,0,0.394-4.138,4.131-4.138
	c3.736,0,4.208,4.138,4.208,4.138v9.477h2.365V23.069H29z M26.997,30.884h-3.218v-3.218h3.218V30.884z"/>
</svg>
