<?xml version="1.0" encoding="utf-8"?>
<!-- Generator: Adobe Illustrator 16.0.0, SVG Export Plug-In . SVG Version: 6.00 Build 0)  -->
<!DOCTYPE svg PUBLIC "-//W3C//DTD SVG 1.1//EN" "http://www.w3.org/Graphics/SVG/1.1/DTD/svg11.dtd">
<svg version="1.1" id="Layer_1" xmlns="http://www.w3.org/2000/svg" xmlns:xlink="http://www.w3.org/1999/xlink" x="0px" y="0px"
	 width="50.622px" height="50px" viewBox="0 0 50.622 50" enable-background="new 0 0 50.622 50" xml:space="preserve">
<polyline points="10.747,9.211 10.747,49.881 15.296,49.881 15.296,9.211 "/>
<polyline points="37.417,9.211 37.417,49.881 41.966,49.881 41.966,9.211 "/>
<path display="none" d="M19.396,28.059c1.969,1.898,8.391-2.189,8.684-4.671c0.292-2.481,1.314-1.954,1.314-1.954l0.641,25.308
	c0,0-5.166-4.816-8.814-2.336C19.614,46.159,17.426,26.161,19.396,28.059z"/>
<path display="none" d="M40.492,28.059c-1.969,1.898-8.391-2.189-8.684-4.671c-0.293-2.481-1.314-1.954-1.314-1.954l-0.641,25.308
	c0,0,5.166-4.816,8.814-2.336C40.273,46.159,42.46,26.161,40.492,28.059z"/>
<g>
	<path display="none" d="M24.721,5.566c0,0.483-0.251,0.714-0.956,0.714c-0.734,0-0.875-0.323-0.875-0.895V2.166
		c0-0.474,0.12-0.766,0.323-0.806l0.321-0.05V0.736h-2.425V1.31l0.323,0.05c0.201,0.04,0.321,0.332,0.321,0.806v3.479
		c0,0.464-0.081,0.755-0.321,0.806l-0.323,0.05v0.573h4.245V5.012h-0.633V5.566z M22.708,3.795c-0.101-0.081-0.241-0.081-0.372,0
		c0.06,0.131,0.17,0.342,0.321,0.493c-0.151,0.332-0.262,0.794-0.332,1.65c-0.07-0.855-0.181-1.318-0.332-1.65
		c0.151-0.151,0.262-0.362,0.313-0.493c-0.142-0.081-0.273-0.081-0.373,0V2.166c0-0.766-0.211-0.957-0.393-0.997l-0.26-0.04V0.907
		h2.083v0.223l-0.262,0.04C22.92,1.209,22.708,1.4,22.708,2.166V3.795z"/>
	<path d="M34.478,2.838v2.375c0,0.393,0.032,0.845,0.131,0.845c0.151,0,0.222-0.422,0.222-0.965V2.789
		c0-0.402-0.02-0.684-0.161-0.684C34.548,2.105,34.478,2.306,34.478,2.838z"/>
	<path d="M27.453,1.723c-0.282,0.483-0.434,0.875-0.554,1.347c0.142,0.161,0.251,0.353,0.312,0.705h0.03
		c0.05-0.352,0.171-0.543,0.313-0.705C27.373,2.678,27.373,2.266,27.453,1.723z"/>
	<path d="M29.696,3.07c0.152,0.161,0.262,0.353,0.312,0.705h0.031c0.061-0.352,0.171-0.543,0.312-0.705
		c-0.131-0.463-0.262-0.885-0.553-1.347C29.877,2.166,29.877,2.678,29.696,3.07z"/>
	<path display="none" d="M28.63,0.667c-1.258,0-2.083,1.086-2.083,2.274l-0.011,1.921c-0.01,1.368,0.835,2.274,2.093,2.274
		c1.268,0,2.093-1.077,2.082-2.344V2.94C30.702,1.682,29.887,0.667,28.63,0.667z M29.344,5.112c0,0.685-0.12,1.379-0.713,1.379
		c-0.604,0-0.714-0.644-0.714-1.379V2.437c0-0.563,0.109-1.117,0.714-1.117c0.594,0,0.713,0.554,0.713,1.117V5.112z M30.531,3.795
		c-0.09-0.081-0.292-0.081-0.493,0c0.07,0.131,0.171,0.332,0.312,0.493c-0.061,0.373-0.14,0.925-0.463,1.65
		c0.07-0.725-0.04-1.318-0.191-1.65c0.152-0.161,0.262-0.362,0.312-0.493c-0.201-0.081-0.402-0.081-0.482,0V2.437
		c0-0.976-0.382-1.298-0.895-1.298c-0.524,0-0.906,0.323-0.906,1.298v1.358c-0.081-0.081-0.282-0.081-0.483,0
		c0.05,0.131,0.171,0.332,0.313,0.493c-0.142,0.332-0.313,0.967-0.182,1.65c-0.262-0.713-0.403-1.308-0.473-1.65
		c0.142-0.161,0.242-0.362,0.312-0.493c-0.192-0.081-0.402-0.081-0.493,0V2.94c0-1.027,0.685-2.104,1.912-2.104
		c1.217,0,1.901,1.076,1.901,2.104V3.795z"/>
	<path d="M28.82,2.838v2.375c0,0.393,0.03,0.845,0.131,0.845c0.151,0,0.222-0.422,0.222-0.965V2.789c0-0.402-0.02-0.684-0.161-0.684
		C28.892,2.105,28.82,2.306,28.82,2.838z"/>
	<path d="M10.84,2.769c-0.262-0.181-0.384-0.483-0.373-1.046c-0.141,0.382-0.251,0.834-0.242,1.218
		c0.272,0.372,0.694,0.623,1.49,0.834h0.04C11.11,3.453,10.829,3.172,10.84,2.769z"/>
	<path display="none" d="M12.047,3.091c-0.765-0.222-1.128-0.403-1.117-0.976c0-0.393,0.262-0.825,0.825-0.825
		c0.432,0,0.926,0.332,1.107,0.563c0.151,0.19,0.272,0.472,0.343,0.775h0.493V0.736h-0.493c-0.07,0.07-0.151,0.15-0.273,0.15
		c-0.15,0-0.301-0.05-0.462-0.1c-0.191-0.061-0.522-0.12-0.834-0.12c-0.997,0-1.812,0.664-1.812,1.73
		c0,1.006,0.362,1.569,1.268,1.952l0.784,0.321c0.332,0.142,0.866,0.383,0.866,0.956c0,0.403-0.312,0.765-0.735,0.765
		c-0.684,0-1.188-0.333-1.438-0.734c-0.161-0.251-0.262-0.474-0.312-0.745H9.753v2.163h0.502c0.091-0.181,0.201-0.381,0.362-0.381
		c0.161,0,0.342,0.089,0.574,0.201c0.221,0.111,0.563,0.242,0.945,0.242c1.026,0,1.812-0.765,1.812-1.902
		C13.948,4.026,13.365,3.482,12.047,3.091z M13.213,5.938c-0.02-0.764-0.362-1.327-0.723-1.428
		c-0.071-0.222-0.212-0.474-0.775-0.715c-0.202-0.081-0.433-0.081-0.635,0c-0.211-0.081-0.362-0.081-0.493,0
		c-0.452-0.372-0.583-0.784-0.583-1.398c0-0.956,0.755-1.56,1.611-1.56c0.26,0,0.482,0.02,0.672,0.07
		c0.203,0.061,0.463,0.152,0.666,0.152c0.151,0,0.251-0.081,0.31-0.152h0.262v1.55h-0.19c-0.131-0.684-0.795-1.338-1.581-1.338
		c-0.724,0-0.995,0.523-0.995,0.966c0,0.533,0.201,0.845,0.834,1.057c0.644,0.22,1.218,0.382,1.541,0.653
		c-0.323-0.081-0.514-0.081-0.696,0c-0.21-0.081-0.432-0.081-0.684,0c0.574,0.121,1.026,0.202,1.319,0.312
		C13.405,4.61,13.485,5.153,13.213,5.938z"/>
	<path d="M18.398,3.081c-0.181-0.242-0.332-0.603-0.603-1.358c0.09,0.755,0.079,1.116,0.029,1.358
		c0.152,0.15,0.292,0.352,0.442,0.705h0.03C18.297,3.433,18.339,3.231,18.398,3.081z"/>
	<path d="M21.994,3.081c0.151,0.15,0.262,0.352,0.313,0.705h0.03c0.06-0.353,0.17-0.554,0.321-0.705
		c-0.151-0.242-0.262-0.603-0.332-1.358C22.256,2.478,22.145,2.838,21.994,3.081z"/>
	<path display="none" d="M19.243,5.335l-1.187-4.599h-0.935l-1.157,4.276c-0.282,1.037-0.454,1.338-0.705,1.419l-0.221,0.07v0.573
		h2.133V6.501l-0.262-0.07c-0.221-0.081-0.373-0.513-0.221-1.107l0.079-0.302h1.218l0.07,0.302c0.162,0.764,0.041,1.026-0.221,1.107
		l-0.262,0.07v0.573h2.475V6.501l-0.282-0.11C19.596,6.331,19.424,6.039,19.243,5.335z M16.999,4.126l0.424-1.539h0.041l0.332,1.539
		H16.999z M18.047,4.288c0.1-0.151,0.211-0.362,0.22-0.493c-0.15-0.081-0.281-0.081-0.362,0l-0.432-2.002h-0.02L16.91,3.795
		c-0.121-0.081-0.262-0.081-0.413,0l0.775-2.888h0.633l0.755,2.888c-0.12-0.081-0.242-0.081-0.363,0
		c0.061,0.131,0.221,0.342,0.393,0.493c-0.05,0.412-0.07,0.835,0.051,1.65C18.479,5.123,18.318,4.75,18.047,4.288z"/>
	<path display="none" d="M34.288,0.667c-1.259,0-2.083,1.086-2.083,2.274l-0.01,1.921c-0.012,1.368,0.834,2.274,2.093,2.274
		c1.269,0,2.092-1.077,2.082-2.344V2.94C36.36,1.682,35.544,0.667,34.288,0.667z M35.001,5.112c0,0.685-0.119,1.379-0.713,1.379
		c-0.604,0-0.713-0.644-0.713-1.379V2.437c0-0.563,0.11-1.117,0.713-1.117c0.594,0,0.713,0.554,0.713,1.117V5.112z M36.189,3.795
		c-0.09-0.081-0.292-0.081-0.494,0c0.071,0.131,0.173,0.332,0.312,0.493c-0.061,0.373-0.139,0.925-0.462,1.65
		c0.071-0.725-0.039-1.318-0.19-1.65c0.151-0.161,0.261-0.362,0.312-0.493c-0.202-0.081-0.401-0.081-0.484,0V2.437
		c0-0.976-0.38-1.298-0.894-1.298c-0.523,0-0.906,0.323-0.906,1.298v1.358c-0.08-0.081-0.282-0.081-0.483,0
		c0.051,0.131,0.172,0.332,0.313,0.493c-0.141,0.332-0.313,0.967-0.183,1.65c-0.262-0.713-0.403-1.308-0.471-1.65
		c0.142-0.161,0.241-0.362,0.312-0.493c-0.192-0.081-0.402-0.081-0.495,0V2.94c0-1.027,0.683-2.104,1.913-2.104
		c1.218,0,1.901,1.076,1.901,2.104V3.795z"/>
	<path d="M40.29,3.02c-0.272-0.322-0.517-0.714-0.857-1.378c0.19,0.674,0.264,1.087,0.202,1.438c0.231,0.15,0.393,0.352,0.614,0.705
		h0.029C40.278,3.433,40.278,3.231,40.29,3.02z"/>
	<path d="M7.333,0v9.415h37.901V0H7.333z M12.892,8.162c-0.423,0-0.825-0.101-1.026-0.242c-0.161-0.111-0.332-0.201-0.463-0.201
		c-0.141,0-0.231,0.271-0.292,0.382h-0.875L9.562,7.226V4.741h0.886c0.17,0.362,0.443,0.794,0.603,0.985
		c0.191,0.242,0.504,0.484,0.886,0.484c0.211,0,0.502-0.122,0.502-0.383c0-0.372-0.834-0.553-1.236-0.774
		c-0.704-0.393-1.57-1.248-1.57-2.616c0-1.227,0.936-1.942,2.053-1.942c0.291,0,0.574,0.042,0.775,0.091
		c0.201,0.051,0.341,0.101,0.442,0.101c0.11,0,0.18-0.081,0.232-0.15h0.744l0.744,1.006v2.112h-0.665l-0.905-0.845
		c-0.08-0.442-0.252-0.886-0.665-0.886c-0.361,0-0.533,0.212-0.533,0.513c0,0.262,0.091,0.432,0.765,0.664
		c1.418,0.493,2.244,1.429,2.244,2.949C14.863,7.317,13.898,8.162,12.892,8.162z M26.271,8.101h-4.699l-0.597-0.784v0.784h-2.606
		l-0.262-0.352v0.352h-2.554l-0.694-0.926V6.35L15.12,6.27c0.251-0.081,0.432-0.413,0.664-1.257l1.196-4.457h1.147l1.127,1.177
		l1.076,4.145c0.086,0.305,0.301,0.731,0.597,0.947V6.331L21.32,6.27c0.192-0.04,0.262-0.321,0.262-0.674V2.166
		c0-0.463-0.142-0.604-0.332-0.624l-0.323-0.061V0.555h2.787l0.745,0.987v0.794l-0.313,0.05c-0.181,0.02-0.341,0.232-0.341,0.775
		v2.515c0,0.272,0.201,0.342,0.362,0.342c0.19,0,0.371-0.242,0.371-0.613V4.842h0.976l0.755,1.015V8.101z M31.627,5.274
		c0,1.931-1.045,2.888-2.444,2.888c-1.438,0-2.816-1.067-2.816-3.27V2.96c0-1.509,1.086-2.466,2.264-2.466
		c1.92,0,2.997,1.711,2.997,2.929V5.274z M37.285,5.274c0,1.931-1.047,2.888-2.444,2.888c-1.439,0-2.816-1.067-2.816-3.27V2.96
		c0-1.509,1.087-2.466,2.263-2.466c1.921,0,2.997,1.711,2.997,2.929V5.274z M43.448,2.336l-0.312,0.05
		c-0.183,0.02-0.334,0.232-0.334,0.775v4.939h-1.588l-0.693-0.926l-0.667-1.851v1.117l0.555,0.733v0.926h-2.303L37.46,7.256V6.331
		l0.392-0.061c0.192-0.04,0.264-0.321,0.264-0.674V2.166c0-0.463-0.142-0.604-0.332-0.624L37.46,1.481V0.555h2.576l0.372,0.493
		V0.555h2.294l0.745,0.987V2.336z"/>
	<path display="none" d="M40.589,1.31l0.321,0.05c0.202,0.04,0.323,0.332,0.323,0.806v2.183h-0.012l-1.327-3.612H37.64V1.31
		l0.324,0.05c0.202,0.04,0.321,0.332,0.321,0.806v3.479c0,0.464-0.08,0.755-0.321,0.806l-0.324,0.05v0.573h1.844V6.501l-0.222-0.05
		c-0.253-0.06-0.334-0.341-0.334-0.806V2.166h0.022l1.76,4.908h1.167V2.166c0-0.474,0.121-0.766,0.333-0.806l0.312-0.05V0.736
		h-1.933V1.31z M40.117,4.288c0.08-0.181,0.132-0.362,0.132-0.493c-0.212-0.081-0.373-0.081-0.494,0l-0.602-1.66
		c-0.062-0.181-0.122-0.292-0.254-0.292c-0.121,0-0.141,0.15-0.141,0.301v1.65c-0.09-0.081-0.212-0.081-0.292,0V2.166
		c0-0.766-0.212-0.957-0.39-0.997l-0.264-0.04V0.907h1.932l1.057,2.888c-0.19-0.081-0.363-0.081-0.523,0
		c0.1,0.131,0.25,0.302,0.462,0.493c0.02,0.353,0.081,0.785,0.251,1.65C40.611,5.104,40.348,4.641,40.117,4.288z M40.759,0.907h1.59
		v0.223l-0.26,0.04c-0.181,0.041-0.393,0.231-0.393,0.997v1.629c-0.061-0.081-0.212-0.081-0.282,0V2.166
		c0-0.766-0.212-0.957-0.392-0.997l-0.264-0.04V0.907z"/>
	<path d="M33.112,1.723c-0.284,0.483-0.435,0.875-0.554,1.347c0.142,0.161,0.251,0.353,0.312,0.705h0.029
		c0.051-0.352,0.172-0.543,0.313-0.705C33.029,2.678,33.029,2.266,33.112,1.723z"/>
	<path d="M35.354,3.07c0.151,0.161,0.261,0.353,0.312,0.705h0.029c0.062-0.352,0.173-0.543,0.312-0.705
		c-0.129-0.463-0.26-0.885-0.552-1.347C35.534,2.166,35.534,2.678,35.354,3.07z"/>
</g>
<path d="M25.264,14.418c0,0-1.271-0.656-1.634,2.429c-0.364,3.087-8.35,8.17-10.8,5.809c-2.45-2.361,0.271,22.51,2.269,20.331
	c4.538-3.082,10.962,2.909,10.962,2.909L25.264,14.418z M24.714,33.107c0,0-1.716,2.385-9.639,4.867c0,0,5.81-3.392,9.554-8.69
	L24.714,33.107z M24.62,24.327v3.281c0,0-1.621,3.186-9.544,5.669 M24.62,19.175v3.28c0,0-1.621,3.637-9.544,6.119"/>
<path d="M26.11,45.897c0,0,6.424-5.991,10.961-2.909c1.997,2.179,4.718-22.692,2.269-20.331c-2.45,2.361-10.436-2.722-10.799-5.809
	c-0.365-3.085-1.635-2.429-1.635-2.429L26.11,45.897z M27.541,29.284c3.745,5.298,9.554,8.69,9.554,8.69
	c-7.923-2.481-9.64-4.867-9.64-4.867L27.541,29.284z M37.095,33.277c-7.923-2.483-9.544-5.669-9.544-5.669v-3.281 M37.095,28.574
	c-7.923-2.482-9.544-6.119-9.544-6.119v-3.28"/>
</svg>
