<?xml version="1.0" encoding="utf-8"?>
<!-- Generator: Adobe Illustrator 16.0.0, SVG Export Plug-In . SVG Version: 6.00 Build 0)  -->
<!DOCTYPE svg PUBLIC "-//W3C//DTD SVG 1.1//EN" "http://www.w3.org/Graphics/SVG/1.1/DTD/svg11.dtd">
<svg version="1.1" id="Layer_1" xmlns="http://www.w3.org/2000/svg" xmlns:xlink="http://www.w3.org/1999/xlink" x="0px" y="0px"
	 width="40.75px" height="40.25px" viewBox="0 0 40.75 40.25" enable-background="new 0 0 40.75 40.25" xml:space="preserve">
<path d="M34.625,21.313c0,0-1.311-1.035-0.651-1.593c1.913-1.62-1.03-2.65,3.387-2.797c2.502-0.442,1.704-1.178,1.704-1.62
	c0-0.442-1.557,1.325-1.557,0c0-1.326-2.651,0.146-2.946-1.473c-0.294-1.619-1.913,0-1.913,0l-6.038-2.944l-3.092-0.589L4.523,1.608
	H1.727L0.695,3.964l21.939,10.16l-0.146,2.945c0,0,1.766,0.294,0.588,1.472c-1.177,1.178-2.503,5.154,0.147,6.921
	c2.651,1.767,5.595,1.177,6.185,0.294c0.589-0.884,2.061,0.735,2.649,1.325c0.59,0.59-1.473,7.656-2.355,7.509
	c0.38,0.966,0.441,1.013,1.914,2.494c1.474,1.482,6.332,2.514,6.332,2.514s1.115,0.884,1.115-7.51
	c-0.046-2.667,0.063-5.154-1.115-7.216C36.771,22.813,34.625,21.313,34.625,21.313z M26.438,25c-2.356,0.295-3.938-3.25-2.771-4.383
	c0.813-0.791,2.081-0.75,2.081-0.75s0.434,0.557,0.44,1.133c0.003,0.308-0.33,0.666-0.44,0.848c-0.854,1.423-0.84,0.457-0.435,1.465
	l2.477-1.09C27.789,22.223,28.794,24.705,26.438,25z"/>
<path d="M1.497,2.172l1.021,0.361l2.084-0.865L2.47,0.684c0,0,0.137,0.015-0.142,0.001C2.05,0.672,1.497,2.172,1.497,2.172z"/>
<rect x="15.473" y="25.212" transform="matrix(0.8516 -0.5243 0.5243 0.8516 -13.8975 13.5293)" width="2.938" height="12.188"/>
<ellipse transform="matrix(0.8515 -0.5243 0.5243 0.8515 -11.5952 11.0235)" cx="13.665" cy="25.984" rx="1.469" ry="3.719"/>
<rect x="11.902" y="27.314" transform="matrix(0.9347 0.3554 -0.3554 0.9347 12.7459 -2.571)" width="2.937" height="12.187"/>
<ellipse transform="matrix(0.9347 0.3554 -0.3554 0.9347 10.8145 -3.7416)" cx="15.592" cy="27.565" rx="1.469" ry="3.719"/>
<rect x="7.747" y="21.594" transform="matrix(0.8368 0.5475 -0.5475 0.8368 16.664 -0.5269)" width="2.937" height="12.186"/>
<ellipse transform="matrix(0.837 0.5472 -0.5472 0.837 14.3484 -3.2541)" cx="12.636" cy="22.456" rx="1.469" ry="3.719"/>
<rect x="10.288" y="27.315" transform="matrix(0.0176 -0.9998 0.9998 0.0176 -21.854 44.5749)" width="2.938" height="12.187"/>
<ellipse transform="matrix(0.018 -0.9998 0.9998 0.018 -27.8836 38.2079)" cx="5.508" cy="33.298" rx="1.468" ry="3.719"/>
</svg>
