<?xml version="1.0" encoding="utf-8"?>
<!-- Generator: Adobe Illustrator 16.0.0, SVG Export Plug-In . SVG Version: 6.00 Build 0)  -->
<!DOCTYPE svg PUBLIC "-//W3C//DTD SVG 1.1//EN" "http://www.w3.org/Graphics/SVG/1.1/DTD/svg11.dtd">
<svg version="1.1" id="Layer_1" xmlns="http://www.w3.org/2000/svg" xmlns:xlink="http://www.w3.org/1999/xlink" x="0px" y="0px"
	 width="96.321px" height="234.38px" viewBox="0 0 96.321 234.38" enable-background="new 0 0 96.321 234.38" xml:space="preserve">
<g>
	<path fill="#F27E21" d="M55.929,234.257v-17.953l4.833-3.798h-4.833V195.59c0,0,13.808,6.214,21.058-2.072
		c7.251-8.284,6.215-19.678,6.215-19.678h4.488l-3.107-3.452l3.107-35.561l5.523-2.071h-4.487l1.381-20.024l6.214-5.867
		c0,0-6.56,3.451-6.56,1.725c0-1.725,2.417-13.809-4.143-16.917c-6.56-3.107-13.119-0.344-14.501,2.762
		c-1.381,3.108,0,80.097-2.416,82.514c-2.417,2.417-0.69,10.011-12.773,2.417c0,0-3.046-30.352,1.726-32.453
		c4.771-2.102,3.108-3.107,3.108-3.107s-5.524,1.727-4.833,0.346c0.69-1.382,2.761-69.394,2.761-69.394l5.869-3.453
		c0,0-4.833,1.035-4.833,0s0.345-39.702,0.345-39.702l7.596-3.453h-6.56c0,0,1.726-21.75-2.417-23.131
		c-0.604-2.72-4.886-5.806-11.048-4.834c-6.161,0.974-11.047,0.69-13.464,8.632c-2.417,7.94,0,31.417,0,31.417
		s-3.108,0.346-4.143-1.381c-1.036-1.727,0.343,4.488,4.487,4.488c-0.69,5.869,1.036,70.773,1.036,70.773s-4.456,3.067-5.854,1.879
		c-1.397-1.188,5.854,2.609,5.854,2.609v22.441c0,0-7.251,2.762-10.013-5.524c-2.762-8.285-4.143-35.213-4.143-35.213l5.179-4.144
		l-5.179,0.689V73.03l5.179-0.692l-5.179-2.761c0,0,2.072-13.464-10.356-15.883C-1.382,55.768-1.382,68.196,0,71.303
		c1.38,3.108,1.38,18.643,1.38,18.643l-4.833-1.035c0,0,1.382,3.108,4.833,4.143c0,0,5.524,42.12,11.739,54.203
		c0,0,1.693,2.248,7.595,5.869c5.904,3.622,16.125,1.739,15.536-3.106l1.037,25.548l-5.18-1.036c0,0,2.072,3.451,4.143,3.451
		c2.072,0,0.345,9.322,0.345,9.322h-3.107l2.762,3.453l1.381,43.5H55.929z"/>
	<path fill="#F27E21" d="M36.457,155.139c0,0-7.427,0.402-10.356-0.243c-2.932-0.644,12.453-7.409,12.453-7.409L36.457,155.139z"/>
</g>
</svg>
