<?xml version="1.0" encoding="utf-8"?>
<!-- Generator: Adobe Illustrator 16.0.0, SVG Export Plug-In . SVG Version: 6.00 Build 0)  -->
<!DOCTYPE svg PUBLIC "-//W3C//DTD SVG 1.1//EN" "http://www.w3.org/Graphics/SVG/1.1/DTD/svg11.dtd">
<svg version="1.1" id="Layer_1" xmlns="http://www.w3.org/2000/svg" xmlns:xlink="http://www.w3.org/1999/xlink" x="0px" y="0px"
	 width="50.622px" height="50px" viewBox="0 0 50.622 50" enable-background="new 0 0 50.622 50" xml:space="preserve">
<path d="M31.811,29.135V16.933l-6.681-6.461l-6.935,6.619l0.126,11.936l-6.511,6.836V49.5h7.606c0,0-1.732-9.595,5.418-9.92
	c0,0,6.602-0.397,6.167,9.832l7.808,0.031v-13.74L31.811,29.135z M27.778,24.5h-5.556c0,0-0.865-5.222,2.679-5.778
	C24.901,18.722,28,18.5,27.778,24.5z"/>
<polygon points="25.811,7.274 25.811,4.5 28.125,4.5 28.169,2.5 25.811,2.5 25.811,0.5 24.836,0.5 23.811,0.5 23.811,2.5 
	21.502,2.5 21.546,4.5 23.811,4.5 23.811,7.274 14.773,16.5 17.36,16.5 24.836,9.1 32.311,16.5 34.899,16.5 "/>
<polygon points="8,35.5 10.516,35.5 16.811,28.514 16.811,26.222 "/>
<polygon points="41.671,35.5 39.156,35.5 32.811,28.514 32.811,26.222 "/>
</svg>
