<?xml version="1.0" encoding="utf-8"?>
<!-- Generator: Adobe Illustrator 16.0.0, SVG Export Plug-In . SVG Version: 6.00 Build 0)  -->
<!DOCTYPE svg PUBLIC "-//W3C//DTD SVG 1.1//EN" "http://www.w3.org/Graphics/SVG/1.1/DTD/svg11.dtd">
<svg version="1.1" id="Layer_1" xmlns="http://www.w3.org/2000/svg" xmlns:xlink="http://www.w3.org/1999/xlink" x="0px" y="0px"
	 width="300px" height="300px" viewBox="0 0 300 300" enable-background="new 0 0 300 300" xml:space="preserve">
<pattern  width="73.333" height="16" patternUnits="userSpaceOnUse" id="New_Pattern_Swatch_5" viewBox="0 -16 73.333 16" overflow="visible">
	<g>
		<polygon fill="none" points="0,0 73.333,0 73.333,-16 0,-16 		"/>
		<polygon points="0,-16 0,-8 73.333,-8 73.333,-16 		"/>
		<polygon fill="#FFFFFF" points="0,0 73.333,0 73.333,-8 0,-8 		"/>
	</g>
</pattern>
<g>
	<path d="M95.308,75.787l-5.341-5.338l2.682-44.009c0,0,34.678-10.668,57.348-7.997v159.36c0,0-43.35-4.668-50.695-47.343
		c0,0-19.995-7.998-19.332-19.336c0.678-11.335,15.339-13.212,15.339-13.212V75.787z"/>
	<path d="M203.391,75.787l5.332-5.338l-2.666-44.009c0,0-34.693-10.668-57.354-7.997v159.361c0,0,43.35-4.669,50.688-47.344
		c0,0,20.01-7.997,19.332-19.336c-0.664-11.334-5.998-11.759-15.332-13.212V75.787z"/>
	<g>
		<path fill="url(#New_Pattern_Swatch_5)" stroke="#000000" stroke-width="0.25" stroke-miterlimit="10" d="M145.718,192.162
			c0,0-37.761-10.686-41.172-17.811c-3.405-7.127-14.058-8.013-15.995-8.013c-1.944,0-7.904-1.77-14.743,12.918
			c-6.832,14.688-8.537,86.579-14.519,102.729h29.262l13.945-66.667v66.667h47.5"/>
		<path fill="url(#New_Pattern_Swatch_5)" stroke="#000000" stroke-width="0.25" stroke-miterlimit="10" d="M154.266,192.162
			c0,0,37.77-10.686,41.182-17.811c3.412-7.127,14.063-8.013,15.994-8.013c1.938,0,7.91-1.77,14.75,12.918
			c6.824,14.688,8.527,86.579,14.52,102.729h-29.27l-13.955-66.667v66.667h-47.49"/>
	</g>
</g>
</svg>
