<?xml version="1.0" encoding="utf-8"?>
<!-- Generator: Adobe Illustrator 16.0.0, SVG Export Plug-In . SVG Version: 6.00 Build 0)  -->
<!DOCTYPE svg PUBLIC "-//W3C//DTD SVG 1.1//EN" "http://www.w3.org/Graphics/SVG/1.1/DTD/svg11.dtd">
<svg version="1.1" id="Layer_1" xmlns="http://www.w3.org/2000/svg" xmlns:xlink="http://www.w3.org/1999/xlink" x="0px" y="0px"
	 width="50.622px" height="50px" viewBox="0 0 50.622 50" enable-background="new 0 0 50.622 50" xml:space="preserve">
<path d="M34.152,10.815c0,0-22.061-0.091-23.526,0c-1.464,0.092-1.381,1.647-1.381,1.647s0.1,14.21,0.008,15.399
	C9.162,29.051,9.832,29.5,9.832,29.5h2.992l1.237,13c0,0-2.519,0-3.435,0s0.185,1.157,0.185,1.157V46.5h24.242
	c0,0-0.092-1.39,0-2.396s-0.641-1.183-0.641-1.183l-3.294-0.134l1.373-13.928c0,0,1.829-0.011,2.287,0.081
	c0.457,0.092,0.656-0.468,0.656-0.468s-0.184-15.093,0-16.374C35.618,10.817,34.152,10.815,34.152,10.815z M32.309,24.562
	c0,0-0.184,0.892-0.916,0.8c-0.731-0.091-17.507,0.007-17.507,0.007s-0.075,0.123-0.075-0.807v-9.704c0,0-0.107-0.841,0.532-0.75
	c0.641,0.092,17.172-0.006,17.172-0.006s0.809-0.176,0.899,0.739C32.506,15.755,32.309,24.562,32.309,24.562z"/>
<path d="M35.373,24.836c0,0,3.454-0.333,3.768,0.763s0.646-0.166,0.489,3.981l-0.695,11.898c0,0-0.533,1.021,0.756,1.021h1.133
	c0,0,0.86-0.379,0.783-1.318L41.61,27.5h3.201v13.966c0,0,0.275,3.13-1.681,3.443c0,0-2.798,0.627-4.989,0
	c0,0-1.712,0.078-1.945-2.504l0.592-12.375l0.217-2.104c0,0,0.227-1.018-1.574-0.782L35.373,24.836z"/>
<path d="M38.811,22.057v1.215c0,0,0.145,1.388,2.565,1.39C41.347,24.951,41.64,26.5,41.64,26.5h2.625l0.071-7.386l-3.671-6.825
	l-1.564,0.893l1.89,5.025c0,0-2.18,0.371-2.18,2.711V22.057z M42.156,23.037c-0.292,0.135-1.567-0.197-1.567-0.197
	c-0.548-0.469-0.235-1.8,0-2.191c0.234-0.391,1.567-0.051,1.567-0.051S42.702,22.785,42.156,23.037z"/>
</svg>
