<?xml version="1.0" encoding="utf-8"?>
<!-- Generator: Adobe Illustrator 16.0.0, SVG Export Plug-In . SVG Version: 6.00 Build 0)  -->
<!DOCTYPE svg PUBLIC "-//W3C//DTD SVG 1.1//EN" "http://www.w3.org/Graphics/SVG/1.1/DTD/svg11.dtd">
<svg version="1.1" id="Layer_1" xmlns="http://www.w3.org/2000/svg" xmlns:xlink="http://www.w3.org/1999/xlink" x="0px" y="0px"
	 width="1000px" height="780.235px" viewBox="0 0 1000 780.235" enable-background="new 0 0 1000 780.235" xml:space="preserve">
<path fill="#F9A232" d="M1000,780.237H0v-413.82c0,0,150.999-89.181,154.737-113.181c3.737-24,2.263-84,0.263-100s8-36,10-56
	s13.998-34.001,22.604-41.31c8.605-7.309,43.395,7.31,55.395,7.31s34-6,38.549,0s29.451,12,47.451,17s12,81,12,81s0,0,6-2
	s24,32,24,32v-86c12-52,23.053,0,23.053,0c-4.947,24-0.521,113.816,0,125.72c0.522,11.904,7.635,46.28,7.635,46.28
	c28.688,44,175.763,75.546,195.313,61.293s136,30.707,190,48.707c54,18,213-20.819,213-20.819V780.237z"/>
</svg>
