<?xml version="1.0" encoding="utf-8"?>
<!-- Generator: Adobe Illustrator 16.0.0, SVG Export Plug-In . SVG Version: 6.00 Build 0)  -->
<!DOCTYPE svg PUBLIC "-//W3C//DTD SVG 1.1//EN" "http://www.w3.org/Graphics/SVG/1.1/DTD/svg11.dtd">
<svg version="1.1" id="Layer_1" xmlns="http://www.w3.org/2000/svg" xmlns:xlink="http://www.w3.org/1999/xlink" x="0px" y="0px"
	 width="300px" height="300px" viewBox="0 0 300 300" enable-background="new 0 0 300 300" xml:space="preserve">
<pattern  width="73.333" height="16" patternUnits="userSpaceOnUse" id="New_Pattern_Swatch_5" viewBox="0 -16 73.333 16" overflow="visible">
	<g>
		<polygon fill="none" points="0,0 73.333,0 73.333,-16 0,-16 		"/>
		<polygon points="0,-16 0,-8 73.333,-8 73.333,-16 		"/>
		<polygon fill="#FFFFFF" points="0,0 73.333,0 73.333,-8 0,-8 		"/>
	</g>
</pattern>
<path d="M56.301,269.588c0,0,24.047-70.658,33.594-41.994c6.393,19.197,185.974,60.957,185.974,60.957S61.1,275.586,56.301,269.588z
	"/>
<path fill="#FFFFFF" stroke="#000000" stroke-width="0.25" stroke-miterlimit="10" d="M22.837,8.441h89.755l11.595,18.787h4.944
	l3.122-18.787h96.678l18.02,18.787L242.27,8.441h28.795v57.18h-9.598c0,0,3.795,205.916,15.695,225.938
	c0,0-174.069-38.768-187.267-63.965c0,0-26.396,55.191-33.594,41.994c0,0-23.996-6-23.996-69.588l17.997-5.961l-17.997-15.637
	V74.681l-9.467-6.66V8.441"/>
<g>
	<path d="M120.767,92.041l-3.36-3.358l1.687-27.687c0,0,21.817-6.711,36.079-5.031v100.256c0,0-27.272-2.937-31.893-29.784
		c0,0-12.579-5.031-12.162-12.165c0.426-7.131,9.65-8.312,9.65-8.312V92.041z"/>
	<path d="M188.763,92.04l3.355-3.358l-1.678-27.687c0,0-21.826-6.711-36.082-5.031v100.257c0,0,27.271-2.938,31.889-29.785
		c0,0,12.588-5.031,12.162-12.165c-0.418-7.131-3.773-7.398-9.646-8.312V92.04z"/>
	<g>
		<path fill="url(#New_Pattern_Swatch_5)" stroke="#000000" stroke-width="0.25" stroke-miterlimit="10" d="M152.48,165.254
			c0,0-23.756-6.723-25.902-11.205c-2.142-4.483-8.844-5.041-10.063-5.041c-1.223,0-4.973-1.113-9.275,8.127
			c-4.298,9.24-5.371,54.469-9.134,64.629h18.409l8.773-41.941v41.941h29.883"/>
		<path fill="url(#New_Pattern_Swatch_5)" stroke="#000000" stroke-width="0.25" stroke-miterlimit="10" d="M157.857,165.254
			c0,0,23.762-6.723,25.908-11.205c2.146-4.483,8.848-5.041,10.063-5.041c1.219,0,4.977-1.113,9.279,8.127
			c4.293,9.24,5.365,54.469,9.135,64.629h-18.414l-8.779-41.941v41.941h-29.877"/>
	</g>
</g>
</svg>
