<?xml version="1.0" encoding="utf-8"?>
<!-- Generator: Adobe Illustrator 16.0.0, SVG Export Plug-In . SVG Version: 6.00 Build 0)  -->
<!DOCTYPE svg PUBLIC "-//W3C//DTD SVG 1.1//EN" "http://www.w3.org/Graphics/SVG/1.1/DTD/svg11.dtd">
<svg version="1.1" id="Layer_1" xmlns="http://www.w3.org/2000/svg" xmlns:xlink="http://www.w3.org/1999/xlink" x="0px" y="0px"
	 width="50.622px" height="50px" viewBox="0 0 50.622 50" enable-background="new 0 0 50.622 50" xml:space="preserve">
<path d="M25.311,2.5L2.478,14.667h45.167L25.311,2.5z M25.311,12.5c-1.565,0-2.833-1.269-2.833-2.833s1.269-2.833,2.833-2.833
	c1.564,0,2.834,1.269,2.834,2.833S26.875,12.5,25.311,12.5z"/>
<rect x="5.811" y="15.333" width="39" height="3"/>
<rect x="5.561" y="38.209" width="39" height="3"/>
<rect x="2.478" y="42.146" width="45.771" height="3"/>
<polygon points="16.333,21.833 16.333,19.333 11.666,19.333 6.999,19.333 6.999,21.833 7.874,21.833 7.874,35.375 6.999,35.438 
	6.999,37.5 11.666,37.5 16.333,37.5 16.333,35.438 15.458,35.375 15.458,21.833 "/>
<polygon points="29.978,21.833 29.978,19.333 25.311,19.333 20.644,19.333 20.644,21.833 21.519,21.833 21.519,35.375 
	20.644,35.438 20.644,37.5 25.311,37.5 29.978,37.5 29.978,35.438 29.103,35.375 29.103,21.833 "/>
<polygon points="43.603,21.833 43.603,19.333 38.936,19.333 34.269,19.333 34.269,21.833 35.144,21.833 35.144,35.375 
	34.269,35.438 34.269,37.5 38.936,37.5 43.603,37.5 43.603,35.438 42.728,35.375 42.728,21.833 "/>
</svg>
