<?xml version="1.0" encoding="utf-8"?>
<!-- Generator: Adobe Illustrator 16.0.0, SVG Export Plug-In . SVG Version: 6.00 Build 0)  -->
<!DOCTYPE svg PUBLIC "-//W3C//DTD SVG 1.1//EN" "http://www.w3.org/Graphics/SVG/1.1/DTD/svg11.dtd">
<svg version="1.1" id="Layer_1" xmlns="http://www.w3.org/2000/svg" xmlns:xlink="http://www.w3.org/1999/xlink" x="0px" y="0px"
	 width="300px" height="300px" viewBox="0 0 300 300" enable-background="new 0 0 300 300" xml:space="preserve">
<path fill="#F9F9F9" d="M112.712,125.578l-0.93-18.661l139.044-64.39l-6.535-14.934h-17.727L106.183,82.65l-19.596,3.733
	l-38.265,18.662c0,0-10.264-10.263-12.128,0c-1.864,10.265-18.667,0.936-18.667,9.335c0,8.397-9.87-2.8-9.87,0
	c0,2.799-5.058,7.463,10.805,10.263c27.995,0.935,9.333,7.47,21.461,17.732c4.178,3.538-1.515,13.506-1.515,13.506
	s-16.212,6.091-23.681,19.154c-7.469,13.062-6.78,28.826-7.07,45.728c0,53.191,7.07,47.594,7.07,47.594s30.795-6.536,40.128-15.93
	c9.334-9.387,9.722-9.688,12.133-15.801c-5.599,0.929-18.667-43.858-14.933-47.593c3.735-3.736,13.063-13.998,16.797-8.399
	c3.735,5.6,22.397,9.334,39.194-1.865c16.797-11.197,8.398-36.394,0.934-43.856C101.52,127.443,112.712,125.578,112.712,125.578z
	 M88.451,168.507c-14.933-1.87-9.334-10.269-9.334-10.269l8.399,2.8c0,0,6.534-1.864,4.538-5.174c-1.996-3.313,0-12.554,0-12.554
	s10.395-1.869,13.194,4.746C108.048,154.679,103.384,170.372,88.451,168.507z"/>
<path fill="#F9F9F9" d="M259.107,158.936c0,0-5.693-9.968-1.516-13.506c12.129-10.263-6.533-16.798,21.463-17.732
	c15.861-2.8,10.805-7.463,10.805-10.263s-9.871,8.397-9.871,0c0-8.399-16.803,0.93-18.668-9.335c-1.863-10.263-12.127,0-12.127,0
	L210.93,89.438l-19.598-3.733L70.951,30.647H53.224l-6.535,14.934l139.044,64.39l-0.931,18.661c0,0,11.193,1.865,3.73,9.335
	c-7.465,7.463-15.863,32.659,0.934,43.857c16.799,11.198,35.461,7.464,39.195,1.865c3.734-5.6,13.063,4.663,16.797,8.398
	c3.734,3.734-9.334,48.521-14.934,47.593c2.412,6.112,2.8,6.414,12.135,15.801c9.332,9.394,40.129,15.93,40.129,15.93
	s7.07,5.599,7.07-47.594c-0.291-16.901,0.398-32.666-7.07-45.728C275.318,165.027,259.107,158.936,259.107,158.936z
	 M209.064,171.561c-14.933,1.865-19.598-13.828-16.797-20.45c2.799-6.615,13.193-4.746,13.193-4.746s1.996,9.241,0,12.554
	c-1.996,3.31,4.539,5.174,4.539,5.174l8.398-2.8C218.398,161.292,223.998,169.691,209.064,171.561z"/>
<path fill="#F9F9F9" d="M239.484,21.409l-13.051,6.185h17.727C244.16,27.594,242.635,24.209,239.484,21.409z"/>
<polygon fill="#F9F9F9" points="245.566,30.497 239.305,32.783 226.434,27.594 239.484,21.409 240.355,21.409 "/>
<path fill="#F9F9F9" d="M239.484,21.409l-13.051,6.185h17.727C244.16,27.594,242.635,24.209,239.484,21.409z"/>
<path fill="#F9F9F9" d="M51.769,33.967l6.475,2.291l13.21-5.484L57.937,24.54c0,0,0.87,0.093-0.896,0.011
	C55.274,24.463,51.769,33.967,51.769,33.967z"/>
</svg>
