<?xml version="1.0" encoding="utf-8"?>
<!-- Generator: Adobe Illustrator 16.0.0, SVG Export Plug-In . SVG Version: 6.00 Build 0)  -->
<!DOCTYPE svg PUBLIC "-//W3C//DTD SVG 1.1//EN" "http://www.w3.org/Graphics/SVG/1.1/DTD/svg11.dtd">
<svg version="1.1" id="Layer_1" xmlns="http://www.w3.org/2000/svg" xmlns:xlink="http://www.w3.org/1999/xlink" x="0px" y="0px"
	 width="40.75px" height="40.25px" viewBox="0 0 40.75 40.25" enable-background="new 0 0 40.75 40.25" xml:space="preserve">
<g>
	<path fill="#000100" d="M19.924,27.156c0,0-5.271-1.431-5.747-2.384c-0.477-0.953-1.961-1.073-2.231-1.073
		c-0.272,0-1.104-0.236-2.058,1.729c-0.953,1.966-1.192,11.587-2.026,13.749h4.084l1.946-8.922v8.922h6.628"/>
	<path fill="#000100" d="M30.861,25.429c-0.953-1.966-1.787-1.729-2.057-1.729c-0.273,0-1.758,0.12-2.234,1.073
		c-0.475,0.953-5.747,2.384-5.747,2.384l-0.592,12.021h6.626v-8.922l1.947,8.922h4.082C32.053,37.016,31.814,27.395,30.861,25.429z
		 M24.186,30.265l-0.66,0.705l-0.158-0.955l-0.871-0.411l0.855-0.441l0.125-0.96l0.686,0.681l0.947-0.181l-0.432,0.866l0.465,0.844
		L24.186,30.265z"/>
</g>
<path d="M30.959,10.693c0-3.018-0.754-2.038-0.943-2.48c-0.189-0.444-4.275,1.065-4.275,1.065s-1.479-3.49-2.328-4.339l-1.414-3.866
	L20.521,1.45l-1.478-0.377l-1.415,3.866c-0.849,0.849-2.326,4.339-2.326,4.339s-4.087-1.509-4.276-1.065
	c-0.189,0.443-0.943-0.538-0.943,2.48c0,3.019,3.868,3.584,3.868,3.584l0.067,2.137c0,0-1.015,0.882-0.959,1.375
	c0.176,1.572,1.546,1.813,1.546,1.813l0.2,1.627c0.853,3.178,5.718,4.557,5.718,4.557s4.864-1.379,5.718-4.557l0.199-1.627
	c0,0,1.369-0.241,1.547-1.813c0.055-0.493-0.961-1.375-0.961-1.375l0.068-2.137C27.092,14.277,30.959,13.712,30.959,10.693z"/>
<text transform="matrix(1 0 0 1 22.6807 34.9346)" fill="#FFFFFF" font-family="'MyriadPro-Regular'" font-size="4.5275">3</text>
</svg>
