<?xml version="1.0" encoding="utf-8"?>
<!-- Generator: Adobe Illustrator 16.0.0, SVG Export Plug-In . SVG Version: 6.00 Build 0)  -->
<!DOCTYPE svg PUBLIC "-//W3C//DTD SVG 1.1//EN" "http://www.w3.org/Graphics/SVG/1.1/DTD/svg11.dtd">
<svg version="1.1" id="Layer_1" xmlns="http://www.w3.org/2000/svg" xmlns:xlink="http://www.w3.org/1999/xlink" x="0px" y="0px"
	 width="300px" height="300px" viewBox="0 0 300 300" enable-background="new 0 0 300 300" xml:space="preserve">
<path fill="#FFFFFF" d="M118.511,109.118l-0.723-14.504l108.067-50.045l-5.078-11.606H207l-93.563,42.791l-15.23,2.901L68.466,93.16
	c0,0-7.978-7.976-9.426,0c-1.449,7.978-14.509,0.727-14.509,7.255c0,6.527-7.671-2.176-7.671,0c0,2.175-3.931,5.8,8.398,7.977
	c21.758,0.726,7.254,5.806,16.68,13.782c3.248,2.75-1.177,10.498-1.177,10.498s-12.601,4.734-18.405,14.887
	c-5.805,10.152-5.27,22.405-5.495,35.542c0,41.34,5.495,36.989,5.495,36.989s23.935-5.08,31.189-12.381
	c7.254-7.295,7.556-7.528,9.43-12.28c-4.352,0.723-14.508-34.089-11.606-36.99c2.902-2.904,10.153-10.879,13.055-6.527
	c2.903,4.352,17.407,7.254,30.462-1.45c13.055-8.703,6.528-28.286,0.727-34.086C109.812,110.568,118.511,109.118,118.511,109.118z
	 M99.655,142.484c-11.606-1.454-7.255-7.981-7.255-7.981l6.528,2.176c0,0,5.078-1.449,3.527-4.021c-1.551-2.574,0-9.757,0-9.757
	s8.079-1.453,10.255,3.689C114.886,131.736,111.261,143.933,99.655,142.484z"/>
<path fill="#FFFFFF" d="M232.292,135.044c0,0-4.424-7.747-1.177-10.497c9.426-7.977-5.078-13.056,16.68-13.782
	c12.329-2.176,8.398-5.8,8.398-7.976c0-2.176-7.672,6.527-7.672,0c0-6.528-13.06,0.723-14.51-7.255c-1.447-7.977-9.426,0-9.426,0
	l-29.74-14.504l-15.229-2.902L86.053,35.336H72.275l-5.079,11.606l108.068,50.045l-0.723,14.504c0,0,8.699,1.45,2.898,7.255
	c-5.801,5.8-12.33,25.384,0.727,34.087s27.561,5.802,30.462,1.449c2.903-4.352,10.153,3.625,13.058,6.528
	c2.9,2.901-7.256,37.711-11.606,36.988c1.874,4.752,2.175,4.986,9.43,12.281c7.255,7.301,31.189,12.381,31.189,12.381
	s5.495,4.352,5.495-36.99c-0.227-13.137,0.31-25.389-5.495-35.541C244.893,139.778,232.292,135.044,232.292,135.044z
	 M193.396,144.857c-11.604,1.45-15.229-10.748-13.055-15.895c2.176-5.142,10.256-3.688,10.256-3.688s1.551,7.182,0,9.757
	c-1.553,2.572,3.526,4.021,3.526,4.021l6.528-2.176C200.652,136.876,205.005,143.404,193.396,144.857z"/>
<path fill="#FFFFFF" d="M217.042,28.156l-10.146,4.807h13.778C220.676,32.963,219.49,30.332,217.042,28.156z"/>
<polygon fill="#FFFFFF" points="221.77,35.219 216.902,36.996 206.896,32.963 217.042,28.156 217.718,28.156 "/>
<path fill="#FFFFFF" d="M217.042,28.156l-10.146,4.807h13.778C220.676,32.963,219.49,30.332,217.042,28.156z"/>
<path fill="#FFFFFF" d="M71.145,37.916l5.032,1.78l10.267-4.262l-10.506-4.845c0,0,0.676,0.072-0.696,0.009
	C73.869,30.529,71.145,37.916,71.145,37.916z"/>
<text transform="matrix(1 0 0 1 26.043 264.6514)" fill="#FFFFFF" font-family="'MyriadPro-Regular'" font-size="46.6334">start the war</text>
</svg>
