<?xml version="1.0" encoding="utf-8"?>
<!-- Generator: Adobe Illustrator 16.0.0, SVG Export Plug-In . SVG Version: 6.00 Build 0)  -->
<!DOCTYPE svg PUBLIC "-//W3C//DTD SVG 1.1//EN" "http://www.w3.org/Graphics/SVG/1.1/DTD/svg11.dtd">
<svg version="1.1" id="Layer_1" xmlns="http://www.w3.org/2000/svg" xmlns:xlink="http://www.w3.org/1999/xlink" x="0px" y="0px"
	 width="21.5px" height="32.833px" viewBox="0 0 21.5 32.833" enable-background="new 0 0 21.5 32.833" xml:space="preserve">
<title>orange pin</title>
<g>
	<title>Layer 1</title>
	<path id="svg_2" fill="#010101" d="M10.602,32.866c-0.734-3.604-2.028-6.604-3.596-9.382c-1.162-2.062-2.51-3.964-3.756-5.963
		c-0.416-0.668-0.774-1.373-1.174-2.064c-0.8-1.385-1.448-2.991-1.407-5.073c0.041-2.036,0.629-3.667,1.478-5.002
		c1.396-2.196,3.734-3.996,6.871-4.469c2.565-0.387,4.97,0.267,6.676,1.263c1.393,0.815,2.473,1.904,3.293,3.187
		c0.855,1.339,1.445,2.921,1.494,4.984c0.025,1.057-0.146,2.036-0.391,2.849c-0.248,0.822-0.645,1.509-0.996,2.244
		c-0.691,1.431-1.555,2.744-2.422,4.058C14.088,23.408,11.663,27.397,10.602,32.866z"/>
	<circle id="svg_4" fill="#FFFFFF" cx="10.575" cy="10.36" r="3.471"/>
</g>
</svg>
